<?xml version="1.0" encoding="utf-8"?>
<!-- Generator: Adobe Illustrator 24.2.3, SVG Export Plug-In . SVG Version: 6.00 Build 0)  -->
<svg version="1.1" id="圖層_1" xmlns="http://www.w3.org/2000/svg" xmlns:xlink="http://www.w3.org/1999/xlink" x="0px" y="0px"
	 viewBox="0 0 298.9 178.2" style="enable-background:new 0 0 298.9 178.2;" xml:space="preserve">
<style type="text/css">
	.st0{fill:#E2E2E2;}
</style>
<g id="圖層_2_1_">
	<g id="圖層_1-2">
		<path class="st0" d="M75.9,142v1.9h-2V142H75.9z"/>
		<path class="st0" d="M34,143.9h-2V142h2V143.9z"/>
		<path class="st0" d="M25,2.1V0.2C27-0.2,27.2,0,26.9,2c-0.2,0-0.4,0-0.7,0.1C26,2.2,25.5,2.1,25,2.1z"/>
		<path class="st0" d="M34,0.2v1.9h-2V0.2H34z"/>
		<path class="st0" d="M39,2V0.2H41V2H39z"/>
		<path class="st0" d="M280.8,136.8c-1.9,0.5-2.1,0.3-1.8-1.8h1.8V136.8z"/>
		<path class="st0" d="M273.8,136.9h-2V135h2V136.9z"/>
		<path class="st0" d="M266.8,135v1.9h-1.9V135H266.8z"/>
		<path class="st0" d="M68.8,2.1H67V0.2h1.8V2.1z"/>
		<path class="st0" d="M73.9,2V0.1h2V2H73.9z"/>
		<path class="st0" d="M80.9,0.1h1.9V2h-1.9V0.1z"/>
		<path class="st0" d="M238.7,136.9c-1.9,0.4-2.2,0.2-1.8-1.8h1.8V136.9z"/>
		<path class="st0" d="M229.8,136.9V135h2v1.9H229.8z"/>
		<path class="st0" d="M102.9,0.1h1.9V2h-1.9V0.1z"/>
		<path class="st0" d="M111.9,2.1h-2V0.2h2V2.1z"/>
		<path class="st0" d="M118.8,2.1c-0.4,0-0.8,0-1.2,0c-0.3,0-0.5,0-0.7-0.1c-0.4-2-0.1-2.3,1.8-1.8L118.8,2.1L118.8,2.1z"/>
		<path class="st0" d="M222.8,136.8V135h1.8C225.1,137,224.8,137.3,222.8,136.8z"/>
		<path class="st0" d="M195.8,135v1.9h-2V135H195.8z"/>
		<path class="st0" d="M188.7,135c0.3,2.1,0.1,2.3-1.8,1.8V135H188.7z"/>
		<path class="st0" d="M144.9,2V0.1l1.9-0.1l0.1,2H144.9z"/>
		<path class="st0" d="M151.8,2V0.2h2V2H151.8z"/>
		<path class="st0" d="M158.9,2V0.1h1.9V2H158.9z"/>
		<path class="st0" d="M160.8,135v1.9l-1.9,0.1v-2H160.8z"/>
		<path class="st0" d="M151.9,135h1.9v1.9h-1.9V135z"/>
		<path class="st0" d="M118.8,137h-1.9v-1.9h1.9V137z"/>
		<path class="st0" d="M188.7,2.1h-1.8V0.3C188.8-0.2,189.1,0,188.7,2.1z"/>
		<path class="st0" d="M195.8,2.1h-2V0.2h2V2.1z"/>
		<path class="st0" d="M111.8,136.9h-2V135h2V136.9z"/>
		<path class="st0" d="M102.9,135h2c0,0.6,0.1,1.4-0.2,1.8c-0.3,0.3-1.1,0.2-1.8,0.3V135z"/>
		<path class="st0" d="M82.8,136.8c-1.9,0.5-2.1,0.3-1.8-1.8h1.8V136.8z"/>
		<path class="st0" d="M224.7,2h-1.8V0.2C224.8-0.2,225.1,0,224.7,2z"/>
		<path class="st0" d="M231.8,2c-0.3,0-0.4,0.1-0.6,0.1h-1.3v-2h1.9V2z"/>
		<path class="st0" d="M238.7,0.3v1.8h-1.8C236.7,0,236.8-0.2,238.7,0.3z"/>
		<path class="st0" d="M75.9,136.9h-2V135h2V136.9z"/>
		<path class="st0" d="M67.1,137c0-0.5-0.1-0.7-0.1-1c0-0.3,0-0.6,0-1h2c0,0.6,0.2,1.4-0.2,1.8C68.4,137.2,67.6,137,67.1,137z"/>
		<path class="st0" d="M39.1,135H41v1.8C39,137.4,38.6,137,39.1,135z"/>
		<path class="st0" d="M265,0.3c1.9-0.5,2.1-0.3,1.8,1.8H265V0.3z"/>
		<path class="st0" d="M273.9,0.2v1.9h-2V0.2H273.9z"/>
		<path class="st0" d="M279,2c-0.3-2.1-0.1-2.3,1.8-1.8c0,0.2,0.1,0.5,0.1,0.8s0,0.6,0,1H279z"/>
		<path class="st0" d="M34,136.9h-2V135h2V136.9z"/>
		<path class="st0" d="M25,136.9V135h1.8C27.4,137,27,137.2,25,136.9z"/>
		<path class="st0" d="M111.8,143.9h-2V142h2V143.9z"/>
		<path class="st0" d="M153.8,143.9h-2V142h2V143.9z"/>
		<path class="st0" d="M193.8,142h2v1.9h-2V142z"/>
		<path class="st0" d="M229.8,143.9V142h1.9v1.9H229.8z"/>
		<path class="st0" d="M273.8,143.9h-1.9V142h1.9V143.9z"/>
		<path class="st0" d="M280.8,122h-1.9v-1.9h1.9V122z"/>
		<path class="st0" d="M273.8,122h-1.3c-0.2,0-0.4,0-0.6-0.1c0-0.3-0.1-0.7-0.1-1c0-0.3,0-0.6,0-0.9h2V122z"/>
		<path class="st0" d="M264.9,122v-1.8c2-0.5,2.2-0.3,1.9,1.8c-0.3,0-0.6,0.1-0.9,0.1C265.6,122,265.2,122,264.9,122z"/>
		<path class="st0" d="M236.8,122v-1.9h1.9v1.9H236.8z"/>
		<path class="st0" d="M229.8,121.9V120h2v1.9H229.8z"/>
		<path class="st0" d="M224.7,122h-1.8v-1.8C224.8,119.7,225.1,119.9,224.7,122z"/>
		<path class="st0" d="M195.8,122h-1.9v-1.9h1.9V122z"/>
		<path class="st0" d="M188.7,122h-1.8v-1.9C188.8,119.7,189.2,119.9,188.7,122z"/>
		<path class="st0" d="M158.9,120h1.9v1.9h-1.9V120z"/>
		<path class="st0" d="M153.8,122h-1.9v-1.9h1.9V122z"/>
		<path class="st0" d="M144.9,120.1c1.9-0.5,2.1-0.3,1.8,1.8h-1.8V120.1z"/>
		<path class="st0" d="M117.1,121.9c-0.4-2-0.2-2.2,1.8-1.8v1.8H117.1z"/>
		<path class="st0" d="M111.9,120v1.9h-2V120H111.9z"/>
		<path class="st0" d="M103.1,120.1c1.9-0.5,2.1-0.3,1.8,1.8h-1.8V120.1z"/>
		<path class="st0" d="M80.9,121.9V120h1.9v1.8L80.9,121.9z"/>
		<path class="st0" d="M73.9,121.9V120h2v1.9H73.9z"/>
		<path class="st0" d="M66.9,122v-1.9h1.9v1.9H66.9z"/>
		<path class="st0" d="M39,120h1.8v1.9H39V120z"/>
		<path class="st0" d="M32,121.9V120h2v1.9H32z"/>
		<path class="st0" d="M25,120.1c1.9-0.5,2.1-0.3,1.8,1.8H25V120.1z"/>
		<path class="st0" d="M273.9,115h-2v-1.9h2V115z"/>
		<path class="st0" d="M229.8,113h1.9v1.9h-1.9V113z"/>
		<path class="st0" d="M195.8,113.1v1.8h-2v-1.8H195.8z"/>
		<path class="st0" d="M151.9,113h1.9v1.9h-1.9V113z"/>
		<path class="st0" d="M109.9,114.9v-1.8h2v1.8H109.9z"/>
		<path class="st0" d="M75.9,115h-2v-1.9h2V115z"/>
		<path class="st0" d="M34,115h-2v-1.9h2V115z"/>
		<path class="st0" d="M271.9,106h2v1.9h-2V106z"/>
		<path class="st0" d="M229.8,107.9V106h2v1.9H229.8z"/>
		<path class="st0" d="M195.8,107.9h-2V106h2V107.9z"/>
		<path class="st0" d="M153.8,106.1v1.8h-2v-1.8H153.8z"/>
		<path class="st0" d="M111.8,107.9h-2v-1.8h2V107.9z"/>
		<path class="st0" d="M73.9,107.9V106h2v1.9H73.9z"/>
		<path class="st0" d="M34,106v1.8h-2V106H34z"/>
		<path class="st0" d="M279,99h1.8v1.8C278.9,101.4,278.6,101.1,279,99z"/>
		<path class="st0" d="M273.9,99.1v1.9h-2v-1.9H273.9z"/>
		<path class="st0" d="M264.9,100.9V99h1.8C267.1,101.1,266.9,101.3,264.9,100.9z"/>
		<path class="st0" d="M236.9,99h1.8v1.8C236.8,101.3,236.7,101.1,236.9,99z"/>
		<path class="st0" d="M231.8,99.1v1.9h-2v-1.9H231.8z"/>
		<path class="st0" d="M222.9,100.9v-1.8h1.8C225.1,101.1,224.8,101.3,222.9,100.9z"/>
		<path class="st0" d="M193.8,99h2v1.9h-2V99z"/>
		<path class="st0" d="M188.7,99.1c0.4,2,0.1,2.2-1.8,1.8v-1.8H188.7z"/>
		<path class="st0" d="M159.1,99h1.8v1.8C158.8,101.3,158.6,101.1,159.1,99z"/>
		<path class="st0" d="M153.9,99v1.9h-2V99H153.9z"/>
		<path class="st0" d="M144.9,101v-2h1.9v1.9L144.9,101z"/>
		<path class="st0" d="M118.8,101h-1.9v-2h1.9V101z"/>
		<path class="st0" d="M109.9,99h2v1.9h-2V99z"/>
		<path class="st0" d="M102.9,99h1.9v2h-1.9V99z"/>
		<path class="st0" d="M82.8,99v2l-1.9,0.1V99H82.8z"/>
		<path class="st0" d="M73.9,101v-1.9h2v1.9H73.9z"/>
		<path class="st0" d="M66.9,99h1.8c0.4,2,0.1,2.3-1.8,1.8V99z"/>
		<path class="st0" d="M41,99v1.9H39V99H41z"/>
		<path class="st0" d="M32,101v-1.9h2v1.9H32z"/>
		<path class="st0" d="M25,99h1.8c0.4,2,0.1,2.3-1.8,1.8V99z"/>
		<path class="st0" d="M34,151h-2v-1.9h2V151z"/>
		<path class="st0" d="M75.9,150.9h-2l-0.1-1.8h2L75.9,150.9z"/>
		<path class="st0" d="M111.8,150.9h-2V149h2V150.9z"/>
		<path class="st0" d="M151.8,150.9V149h2v1.9H151.8z"/>
		<path class="st0" d="M195.8,149.1v1.8h-2l-0.1-1.8H195.8z"/>
		<path class="st0" d="M229.8,149h1.9v1.8h-1.9V149z"/>
		<path class="st0" d="M271.9,150.9V149h2v1.8L271.9,150.9z"/>
		<path class="st0" d="M280.9,78.1V80H279v-1.9H280.9z"/>
		<path class="st0" d="M273.9,78.1V80h-2v-1.9H273.9z"/>
		<path class="st0" d="M266.8,80H265v-1.9C266.9,77.7,267.1,78,266.8,80z"/>
		<path class="st0" d="M236.8,80v-1.9h1.9V80H236.8z"/>
		<path class="st0" d="M231.8,80h-2v-1.9h1.9L231.8,80z"/>
		<path class="st0" d="M222.8,80v-1.9l1.9-0.1l0.1,2H222.8z"/>
		<path class="st0" d="M195.8,80c-0.2,0-0.4,0.1-0.6,0.1c-0.4,0-0.8,0-1.3,0v-2h1.9V80z"/>
		<path class="st0" d="M188.7,80h-1.8v-1.9C188.8,77.7,189.2,77.9,188.7,80z"/>
		<path class="st0" d="M158.9,80v-1.9h1.9V80H158.9z"/>
		<path class="st0" d="M151.9,80v-1.9h2V80H151.9z"/>
		<path class="st0" d="M144.9,80v-1.8c2-0.5,2.2-0.3,1.9,1.8H144.9z"/>
		<path class="st0" d="M116.9,80v-1.9h1.9V80H116.9z"/>
		<path class="st0" d="M109.9,80v-1.9h2V80H109.9z"/>
		<path class="st0" d="M102.9,80v-1.8c2-0.5,2.2-0.2,1.8,1.8c-0.3,0-0.6,0.1-0.9,0.1C103.6,80.1,103.2,80.1,102.9,80z"/>
		<path class="st0" d="M80.9,78h1.9v1.9h-1.9V78z"/>
		<path class="st0" d="M73.9,80v-1.9h2V80H73.9z"/>
		<path class="st0" d="M66.9,80v-1.8c1.9-0.5,2.2-0.3,1.8,1.8H66.9z"/>
		<path class="st0" d="M41,78.1V80H39v-1.9H41z"/>
		<path class="st0" d="M27,21.1V23H25v-1.9H27z"/>
		<path class="st0" d="M34,21.2v1.9h-2v-1.9H34z"/>
		<path class="st0" d="M39,21.1h1.8v1.8C39,23.4,38.8,23.2,39,21.1z"/>
		<path class="st0" d="M34,80H32v-1.9H34V80z"/>
		<path class="st0" d="M26.9,80H25v-1.8C26.9,77.6,27.3,78,26.9,80z"/>
		<path class="st0" d="M66.9,21.1h2c0,0.6,0.1,1.5-0.2,1.8s-1.1,0.2-1.8,0.3V21.1z"/>
		<path class="st0" d="M75.9,21.1V23h-2v-1.9H75.9z"/>
		<path class="st0" d="M82.8,23h-1.9v-1.9h2L82.8,23z"/>
		<path class="st0" d="M271.9,73v-1.9h2V73H271.9z"/>
		<path class="st0" d="M231.8,71.1V73h-2v-1.9H231.8z"/>
		<path class="st0" d="M104.8,21.2v1.9h-1.9v-1.9H104.8z"/>
		<path class="st0" d="M109.9,23v-1.8h2V23H109.9z"/>
		<path class="st0" d="M116.9,23.1v-2h1.9V23L116.9,23.1z"/>
		<path class="st0" d="M193.8,71.1h1.9V73h-1.9V71.1z"/>
		<path class="st0" d="M151.9,71.1h1.9V73h-1.9V71.1z"/>
		<path class="st0" d="M111.9,71.2V73h-2v-1.8H111.9z"/>
		<path class="st0" d="M146.8,23h-1.9v-1.9h1.9V23z"/>
		<path class="st0" d="M153.9,21.2v1.9h-2v-1.9H153.9z"/>
		<path class="st0" d="M160.8,21.1V23l-1.9,0.1v-2H160.8z"/>
		<path class="st0" d="M75.9,71.2V73h-2v-1.8H75.9z"/>
		<path class="st0" d="M34,73h-2v-1.9h2V73z"/>
		<path class="st0" d="M188.8,23h-1.9v-1.9h1.9V23z"/>
		<path class="st0" d="M195.8,21.2v1.9h-2v-1.9H195.8z"/>
		<path class="st0" d="M271.9,64.1h1.9V66h-1.9V64.1z"/>
		<path class="st0" d="M229.8,64.1h2l0.1,1.8h-2.1V64.1z"/>
		<path class="st0" d="M195.8,64.1v1.8h-2v-1.8H195.8z"/>
		<path class="st0" d="M222.9,21.1h1.9V23h-1.9V21.1z"/>
		<path class="st0" d="M229.8,21.1h1.9V23h-1.9V21.1z"/>
		<path class="st0" d="M236.8,21.1h1.9V23h-1.9V21.1z"/>
		<path class="st0" d="M153.8,66h-1.9v-1.9h1.9V66z"/>
		<path class="st0" d="M111.8,66h-2v-1.9h2V66z"/>
		<path class="st0" d="M74.1,64h1.9v1.9h-1.9V64z"/>
		<path class="st0" d="M266.8,21.1V23h-1.9v-1.9H266.8z"/>
		<path class="st0" d="M271.9,23v-1.9h2V23H271.9z"/>
		<path class="st0" d="M280.8,21.1V23h-1.9v-1.9H280.8z"/>
		<path class="st0" d="M34,66h-2v-1.9h2V66z"/>
		<path class="st0" d="M278.9,59.1v-2h1.9V59L278.9,59.1z"/>
		<path class="st0" d="M271.9,57.1h1.9v2h-1.9V57.1z"/>
		<path class="st0" d="M264.9,57.1h1.9v2h-1.9V57.1z"/>
		<path class="st0" d="M238.7,58.9c-1.9,0.5-2.1,0.3-1.8-1.8h1.8V58.9z"/>
		<path class="st0" d="M32,30v-1.8h2L34,30H32z"/>
		<path class="st0" d="M231.7,59h-1.9v-1.9h1.9V59z"/>
		<path class="st0" d="M222.8,59.1v-2h2c0,0.6,0.2,1.4-0.1,1.7S223.6,59,222.8,59.1z"/>
		<path class="st0" d="M195.8,57.1V59h-2v-1.9H195.8z"/>
		<path class="st0" d="M186.9,59v-1.9h1.8C189.2,59,188.9,59.3,186.9,59z"/>
		<path class="st0" d="M160.8,57.1v1.8c-1.9,0.5-2.2,0.3-1.9-1.8H160.8z"/>
		<path class="st0" d="M73.9,28.1h2V30h-2V28.1z"/>
		<path class="st0" d="M153.9,57.1V59h-2v-1.9H153.9z"/>
		<path class="st0" d="M144.9,59v-1.9h1.9V59H144.9z"/>
		<path class="st0" d="M118.8,57.1v1.8c-2,0.5-2.2,0.3-1.9-1.8H118.8z"/>
		<path class="st0" d="M111.9,59h-2v-1.9h2V59z"/>
		<path class="st0" d="M109.9,28.1h1.9V30h-1.9V28.1z"/>
		<path class="st0" d="M103.1,57c0.4,0,0.6,0,0.9,0s0.6,0,0.8,0c0.5,2,0.3,2.2-1.7,1.9V57z"/>
		<path class="st0" d="M81.1,57h1.8v1.8C80.9,59.4,80.8,59.2,81.1,57z"/>
		<path class="st0" d="M73.9,57h2v2h-2V57z"/>
		<path class="st0" d="M68.8,59h-1.9v-1.9h1.9V59z"/>
		<path class="st0" d="M39,59v-1.9H41V59H39z"/>
		<path class="st0" d="M151.8,30v-1.9h2V30C153.8,30,151.8,30,151.8,30z"/>
		<path class="st0" d="M34,59h-2v-1.9h2V59z"/>
		<path class="st0" d="M25,57h1.8c0.5,2,0.3,2.2-1.8,1.9V57z"/>
		<path class="st0" d="M26.9,157.9H25v-1.8C27,155.7,27.3,155.9,26.9,157.9z"/>
		<path class="st0" d="M195.8,30h-2v-1.9h2V30z"/>
		<path class="st0" d="M34,156v1.9h-2V156C32,156,34,156,34,156z"/>
		<path class="st0" d="M41,157.9c-0.3,0-0.6,0.1-0.9,0.1s-0.6,0-1-0.1V156H41V157.9z"/>
		<path class="st0" d="M68.8,158H67v-1.9C68.9,155.7,69.1,155.9,68.8,158z"/>
		<path class="st0" d="M75.9,156v1.9h-2V156C73.9,156,75.9,156,75.9,156z"/>
		<path class="st0" d="M231.8,30h-2v-1.9h2V30z"/>
		<path class="st0" d="M80.9,156h1.9v1.9h-1.9V156z"/>
		<path class="st0" d="M104.8,158H103v-1.9h1.8V158z"/>
		<path class="st0" d="M111.9,156v1.9h-2V156C109.9,156,111.9,156,111.9,156z"/>
		<path class="st0" d="M118.8,155.9v2h-2c0-0.6-0.2-1.4,0.1-1.7C117.3,155.8,118.1,156,118.8,155.9z"/>
		<path class="st0" d="M144.9,157.9V156l1.9-0.1v2H144.9z"/>
		<path class="st0" d="M273.9,28.2V30h-2v-1.8H273.9z"/>
		<path class="st0" d="M153.8,156c0,0.4,0.1,0.7,0.1,1c0,0.3,0,0.5-0.1,0.9h-2V156C151.8,156,153.8,156,153.8,156z"/>
		<path class="st0" d="M160.8,156.1v1.8H159C158.6,155.9,158.8,155.7,160.8,156.1z"/>
		<path class="st0" d="M188.8,156v1.9h-1.9V156C186.9,156,188.8,156,188.8,156z"/>
		<path class="st0" d="M195.8,156v1.9h-2V156C193.8,156,195.8,156,195.8,156z"/>
		<path class="st0" d="M146.8,137h-1.9v-1.9h1.9V137z"/>
		<path class="st0" d="M222.9,156c0.4,0,0.7-0.1,1-0.1s0.5,0,0.9,0.1v1.9h-1.9V156z"/>
		<path class="st0" d="M26.9,38H25v-1.8C27,35.8,27.3,36,26.9,38z"/>
		<path class="st0" d="M34,36.1v1.1c0,0.2,0,0.5,0,0.8h-2v-1.9C32,36.1,34,36.1,34,36.1z"/>
		<path class="st0" d="M41,36.2V38H39C38.8,36,39,35.8,41,36.2z"/>
		<path class="st0" d="M229.8,157.9V156h2v1.9H229.8z"/>
		<path class="st0" d="M236.9,156h1.9v1.9h-1.9V156z"/>
		<path class="st0" d="M266.8,158H265v-1.9C266.9,155.6,267.1,155.8,266.8,158z"/>
		<path class="st0" d="M68.8,36.2v1.9h-1.9v-1.9H68.8z"/>
		<path class="st0" d="M73.9,38v-1.9h2V38H73.9z"/>
		<path class="st0" d="M81.1,38.1c-0.4-2.1-0.1-2.4,1.8-1.9c0,0.2,0.1,0.4,0.1,0.7s0,0.7,0,1.1c-0.4,0-0.7,0.1-1,0.1
			S81.4,38.1,81.1,38.1z"/>
		<path class="st0" d="M271.9,156h1.9v1.9h-1.9V156z"/>
		<path class="st0" d="M280.8,156.1v1.8H279C278.6,155.9,278.8,155.7,280.8,156.1z"/>
		<path class="st0" d="M102.9,36.2c1.9-0.4,2.2-0.2,1.8,1.8c-0.2,0-0.4,0-0.7,0.1h-1.1V36.2z"/>
		<path class="st0" d="M111.9,36.1V38h-2v-1.9H111.9z"/>
		<path class="st0" d="M118.8,38H117c-0.5-2-0.3-2.2,1.8-1.9V38z"/>
		<path class="st0" d="M280.8,38h-1.9v-1.9h1.9V38z"/>
		<path class="st0" d="M273.8,38h-1.9v-1.9h1.9V38z"/>
		<path class="st0" d="M264.9,38v-1.8c2-0.5,2.2-0.3,1.9,1.8H264.9z"/>
		<path class="st0" d="M146.8,38h-1.8v-1.8C146.8,35.7,147.1,36,146.8,38z"/>
		<path class="st0" d="M151.9,38v-1.9h2V38H151.9z"/>
		<path class="st0" d="M160.8,36v2h-1.9c0-0.6-0.2-1.4,0.1-1.8S160.1,36.1,160.8,36z"/>
		<path class="st0" d="M238.7,38h-1.9v-1.9h1.9V38z"/>
		<path class="st0" d="M231.8,36.2v1.9h-2v-1.9H231.8z"/>
		<path class="st0" d="M224.7,38h-1.8v-1.8C224.8,35.8,225.1,36,224.7,38z"/>
		<path class="st0" d="M188.7,38h-1.8v-1.9h1.9L188.7,38z"/>
		<path class="st0" d="M195.8,36.1V38h-2v-1.9H195.8z"/>
		<path class="st0" d="M40.9,73H39v-1.9h1.8V73z"/>
		<path class="st0" d="M81.1,142h1.8v1.9l-1.8,0.1V142z"/>
		<path class="st0" d="M68.9,143.9h-2V142h1.8L68.9,143.9z"/>
		<path class="st0" d="M39.1,142h1.7v1.8C39,144.3,38.6,143.9,39.1,142z"/>
		<path class="st0" d="M25,142h1.7c0.5,1.9,0.2,2.2-1.7,1.8V142z"/>
		<path class="st0" d="M104.8,142c0.4,1.9,0.1,2.2-1.8,1.7V142H104.8z"/>
		<path class="st0" d="M116.9,144v-2h1.9v1.9L116.9,144z"/>
		<path class="st0" d="M144.9,143.9V142h1.9v1.8L144.9,143.9z"/>
		<path class="st0" d="M158.9,142h1.8v1.9l-1.8,0.1V142z"/>
		<path class="st0" d="M188.7,143.9h-1.8V142h1.8V143.9z"/>
		<path class="st0" d="M224.8,142v1.8h-1.9V142H224.8z"/>
		<path class="st0" d="M238.7,142v1.9h-1.8V142H238.7z"/>
		<path class="st0" d="M264.9,143.9V142h1.9c0,0.6,0,1.2,0.1,1.9H264.9z"/>
		<path class="st0" d="M278.9,113.1h1.9v1.9h-1.9V113.1z"/>
		<path class="st0" d="M265,113.2c1.9-0.4,2.2-0.1,1.7,1.8c-0.2,0-0.4,0.1-0.6,0.1c-0.4,0-0.7,0-1.2,0v-1.9H265z"/>
		<path class="st0" d="M236.8,115v-1.8h1.9v1.8H236.8z"/>
		<path class="st0" d="M222.8,115v-1.8h1.9v1.8H222.8z"/>
		<path class="st0" d="M188.7,115h-1.8v-2l1.8-0.1V115z"/>
		<path class="st0" d="M160.8,115h-1.9v-1.9h1.9V115z"/>
		<path class="st0" d="M144.9,115v-1.8h1.9v1.8H144.9z"/>
		<path class="st0" d="M118.8,113.2v1.7H117C116.6,113,116.9,112.7,118.8,113.2z"/>
		<path class="st0" d="M102.9,113h1.8v1.9h-1.8V113z"/>
		<path class="st0" d="M80.9,115v-1.8h1.9v1.8H80.9z"/>
		<path class="st0" d="M68.9,113v2h-1.9v-1.8L68.9,113z"/>
		<path class="st0" d="M39,115v-1.8h2v1.8H39z"/>
		<path class="st0" d="M25,113H27v1.9H25V113z"/>
		<path class="st0" d="M278.9,107.9V106h1.9v1.9H278.9z"/>
		<path class="st0" d="M266.8,106c0,0.4,0.1,0.7,0.1,1c0,0.3,0,0.5-0.1,0.9h-1.9V106H266.8z"/>
		<path class="st0" d="M237.1,106h1.7v1.8C236.8,108.3,236.6,108,237.1,106z"/>
		<path class="st0" d="M224.8,106v1.8h-1.9V106H224.8z"/>
		<path class="st0" d="M186.9,106h1.9l0.1,1.9h-2V106z"/>
		<path class="st0" d="M160.8,106v1.8c-1.9,0.5-2.2,0.2-1.8-1.8H160.8z"/>
		<path class="st0" d="M144.9,106h1.8c0.4,2,0.3,2.1-1.8,1.8V106z"/>
		<path class="st0" d="M117.1,106h1.8v1.8C117.1,108.4,116.6,108.1,117.1,106z"/>
		<path class="st0" d="M102.9,106h1.9l0.1,1.9h-2V106z"/>
		<path class="st0" d="M82.8,107.9h-1.9V106h1.9V107.9z"/>
		<path class="st0" d="M67.1,106h1.7c0.5,1.9,0.2,2.2-1.7,1.8V106z"/>
		<path class="st0" d="M40.9,107.8c-1.9,0.4-2.2,0.1-1.7-1.8h1.7V107.8z"/>
		<path class="st0" d="M26.9,108H25v-1.9h1.8V108z"/>
		<path class="st0" d="M280.8,143.9H279V142h1.8V143.9z"/>
		<path class="st0" d="M25,150.9v-1.8H27v1.8H25z"/>
		<path class="st0" d="M41,151h-1.8c-0.5-1.9-0.2-2.2,1.8-1.8V151z"/>
		<path class="st0" d="M68.8,150.9c-0.3,0-0.6,0.1-0.9,0.1s-0.5-0.1-0.9-0.1v-1.8C68.9,148.7,69.2,149,68.8,150.9z"/>
		<path class="st0" d="M82.8,149.2v1.8H81C80.6,149,80.9,148.7,82.8,149.2z"/>
		<path class="st0" d="M104.8,151h-1.7v-1.8C104.9,148.7,105.2,149,104.8,151z"/>
		<path class="st0" d="M118.8,149v1.8h-1.9V149H118.8z"/>
		<path class="st0" d="M144.9,149.2c1.9-0.5,2.2-0.2,1.8,1.8h-1.8V149.2z"/>
		<path class="st0" d="M158.9,149h1.8v1.9h-1.8V149z"/>
		<path class="st0" d="M186.9,149h1.8v1.9h-1.8V149z"/>
		<path class="st0" d="M224.7,150.9h-1.7v-1.8C224.8,148.7,225.2,149,224.7,150.9z"/>
		<path class="st0" d="M238.7,151h-1.2c-0.2,0-0.4,0-0.6-0.1c-0.5-1.9-0.2-2.2,1.7-1.8L238.7,151z"/>
		<path class="st0" d="M279,28.1h1.8v1.8C278.9,30.4,278.6,30,279,28.1z"/>
		<path class="st0" d="M264.9,150.9v-1.8c1.9-0.5,2.2-0.2,1.8,1.8H264.9z"/>
		<path class="st0" d="M280.8,149.1v1.8H279C278.5,149.1,278.7,148.8,280.8,149.1z"/>
		<path class="st0" d="M278.9,71.1h1.9V73h-1.9V71.1z"/>
		<path class="st0" d="M264.9,28.1h1.8c0.5,2,0.2,2.2-1.8,1.8V28.1z"/>
		<path class="st0" d="M264.9,73v-1.9h1.9V73H264.9z"/>
		<path class="st0" d="M238.7,73h-1.9c0-0.6-0.1-1.2-0.1-1.9h2V73z"/>
		<path class="st0" d="M222.8,73v-1.7c1.9-0.5,2.2-0.2,1.8,1.7H222.8z"/>
		<path class="st0" d="M188.7,73h-1.8v-1.9l1.8-0.1V73z"/>
		<path class="st0" d="M160.8,71.2v1.7H159C158.6,71,158.8,70.8,160.8,71.2z"/>
		<path class="st0" d="M144.9,73v-1.9h1.9V73H144.9z"/>
		<path class="st0" d="M118.8,73H117c-0.4-2-0.3-2.1,1.8-1.8V73z"/>
		<path class="st0" d="M102.9,73v-1.9h1.9V73H102.9z"/>
		<path class="st0" d="M82.8,71.2v1.9h-1.9v-1.9H82.8z"/>
		<path class="st0" d="M67.1,71.2c1.9-0.5,2.2-0.2,1.8,1.8h-1.8V71.2z"/>
		<path class="st0" d="M26.9,73H25v-1.8C27,70.8,27.3,71,26.9,73z"/>
		<path class="st0" d="M278.9,64h1.9v1.9l-1.9,0.1V64z"/>
		<path class="st0" d="M264.9,65.9v-1.8h1.9c0,0.6,0,1.1,0.1,1.8H264.9z"/>
		<path class="st0" d="M238.7,66h-1.8v-1.9h1.8V66z"/>
		<path class="st0" d="M222.9,64h1.8v1.9h-1.8V64z"/>
		<path class="st0" d="M238.7,28.1V30h-1.8v-1.9H238.7z"/>
		<path class="st0" d="M186.9,65.9v-1.8h1.9l0.1,1.8H186.9z"/>
		<path class="st0" d="M158.9,65.9v-1.8h1.9v1.8H158.9z"/>
		<path class="st0" d="M146.8,64.1v1.8h-1.9v-1.8H146.8z"/>
		<path class="st0" d="M224.7,30h-1.8v-1.9h1.9L224.7,30z"/>
		<path class="st0" d="M118.8,66H117v-1.9h1.8V66z"/>
		<path class="st0" d="M104.8,64.1v1.8h-1.9v-1.8H104.8z"/>
		<path class="st0" d="M82.8,64.1v1.8c-2,0.4-2.1,0.3-1.8-1.8H82.8z"/>
		<path class="st0" d="M67.1,64h1.8c0.5,1.9,0.2,2.2-1.8,1.8V64z"/>
		<path class="st0" d="M41,64v1.8c-2,0.4-2.3,0.1-1.8-1.8H41z"/>
		<path class="st0" d="M27,64.1v1.8H25v-1.8H27z"/>
		<path class="st0" d="M27,30H25v-1.9H27V30z"/>
		<path class="st0" d="M39,28.1h1.8V30L39,30.1V28.1z"/>
		<path class="st0" d="M68.8,28.1V30h-1.9v-1.9H68.8z"/>
		<path class="st0" d="M82.8,30c-0.3,0-0.6,0.1-0.8,0.1c-0.3,0-0.6-0.1-1.1-0.1v-1.9h1.9L82.8,30L82.8,30z"/>
		<path class="st0" d="M102.9,29.9v-1.7h1.8C105.2,30.1,104.9,30.4,102.9,29.9z"/>
		<path class="st0" d="M186.9,28.1h1.9l0.1,1.9h-2V28.1z"/>
		<path class="st0" d="M118.8,30h-1.9v-1.9h1.8L118.8,30z"/>
		<path class="st0" d="M144.9,28.1h1.8V30h-1.8V28.1z"/>
		<path class="st0" d="M158.9,28.1h1.9V30l-1.9,0.1V28.1z"/>
		<path class="st0" d="M236.8,52v-1.8h1.9V52H236.8z"/>
		<path class="st0" d="M11,156H13v1.9H11V156z"/>
		<path class="st0" d="M4,157.9V156H6v1.9H4z"/>
		<path class="st0" d="M179.9,28.1h1.8V30h-1.8V28.1z"/>
		<path class="st0" d="M266.8,52h-1.9v-1.8h1.9V52z"/>
		<path class="st0" d="M271.9,52v-1.8h2V52H271.9z"/>
		<path class="st0" d="M278.9,50.1h1.9V52h-1.9V50.1z"/>
		<path class="st0" d="M292.9,149h1.9v1.9h-1.9V149z"/>
		<path class="st0" d="M287.8,151H286v-1.9h1.8V151z"/>
		<path class="st0" d="M174.8,28.1V30h-1.9v-1.9H174.8z"/>
		<path class="st0" d="M4,57H6v2H4V57z"/>
		<path class="st0" d="M11,57.1H13V59H11V57.1z"/>
		<path class="st0" d="M18,59v-1.9H20V59H18z"/>
		<path class="st0" d="M165.9,30v-1.9h1.8V30C167.8,30,165.9,30,165.9,30z"/>
		<path class="st0" d="M229.8,52v-1.8h2V52H229.8z"/>
		<path class="st0" d="M222.9,50.1h1.9V52h-1.9V50.1z"/>
		<path class="st0" d="M46,59v-1.9h1.8V59H46z"/>
		<path class="st0" d="M54.8,59H53v-2h1.8V59z"/>
		<path class="st0" d="M61.8,57.1V59H60v-1.9H61.8z"/>
		<path class="st0" d="M137.9,30v-1.9h1.9V30C139.8,30,137.9,30,137.9,30z"/>
		<path class="st0" d="M132.8,30h-1.9v-1.9h1.9V30z"/>
		<path class="st0" d="M124.1,28.1h1.8V30h-1.8V28.1z"/>
		<path class="st0" d="M89.8,59H88v-1.9h1.8V59z"/>
		<path class="st0" d="M96.8,57.1V59h-1.9v-1.9H96.8z"/>
		<path class="st0" d="M19.9,158H18v-2h1.8V158z"/>
		<path class="st0" d="M203.8,30h-1.9v-1.9h1.8L203.8,30z"/>
		<path class="st0" d="M96.8,28.2v1.9h-1.9v-1.9H96.8z"/>
		<path class="st0" d="M125.8,59H124v-1.9h1.8V59z"/>
		<path class="st0" d="M132.8,57.1V59h-1.9v-1.9H132.8z"/>
		<path class="st0" d="M137.9,59v-1.9h1.9V59H137.9z"/>
		<path class="st0" d="M88.1,28.1h1.9V30h-1.9V28.1z"/>
		<path class="st0" d="M195.8,52h-1.9v-1.9h1.9V52z"/>
		<path class="st0" d="M188.8,50.2v1.9h-1.9v-1.9H188.8z"/>
		<path class="st0" d="M167.8,59h-1.9v-1.9h1.8L167.8,59z"/>
		<path class="st0" d="M172.9,59v-1.9h1.9V59H172.9z"/>
		<path class="st0" d="M181.7,59h-1.8v-1.9h1.8V59z"/>
		<path class="st0" d="M60.1,28.1h1.8V30h-1.8V28.1z"/>
		<path class="st0" d="M53.1,28.1H55V30h-1.9V28.1z"/>
		<path class="st0" d="M203.8,57.1V59h-1.9v-1.9H203.8z"/>
		<path class="st0" d="M210.8,59h-1.9v-1.9h1.9V59z"/>
		<path class="st0" d="M215.9,57h1.8v2h-1.8V57z"/>
		<path class="st0" d="M48,28.2v1.9H46v-1.9H48z"/>
		<path class="st0" d="M210.8,28.2v1.9h-1.9v-1.9H210.8z"/>
		<path class="st0" d="M48,157.9H46V156H48V157.9z"/>
		<path class="st0" d="M243.8,57h1.9v2h-1.8C243.9,58.4,243.8,57.8,243.8,57z"/>
		<path class="st0" d="M252.7,57.1V59h-1.8v-1.9H252.7z"/>
		<path class="st0" d="M257.9,59v-1.9h1.9V59H257.9z"/>
		<path class="st0" d="M20,28.1V30H18v-1.9H20z"/>
		<path class="st0" d="M13,28.1V30H11v-1.9H13z"/>
		<path class="st0" d="M4,30v-1.9H6V30C6,30,4,30,4,30z"/>
		<path class="st0" d="M287.8,57.1V59H286v-1.9H287.8z"/>
		<path class="st0" d="M294.8,59H293v-1.9h1.8V59z"/>
		<path class="st0" d="M294.8,21.1V23h-1.9v-1.9H294.8z"/>
		<path class="st0" d="M4,66v-1.9H6V66H4z"/>
		<path class="st0" d="M11,64h1.8v2H11V64z"/>
		<path class="st0" d="M18,65.9V64h1.8v1.8L18,65.9z"/>
		<path class="st0" d="M54.8,157.9H53V156h1.9V157.9z"/>
		<path class="st0" d="M285.9,21.1h1.9V23h-1.9V21.1z"/>
		<path class="st0" d="M158.9,51.9v-1.8h1.9v1.8H158.9z"/>
		<path class="st0" d="M48,64.1V66H46v-1.9H48z"/>
		<path class="st0" d="M53.1,64h1.8v2h-1.8V64z"/>
		<path class="st0" d="M60.1,64h1.8v1.9h-1.8V64z"/>
		<path class="st0" d="M151.9,52v-1.9h2V52H151.9z"/>
		<path class="st0" d="M257.9,23v-1.9h1.9V23H257.9z"/>
		<path class="st0" d="M144.9,50.1h1.9v1.8h-1.9V50.1z"/>
		<path class="st0" d="M88.1,64.1h1.9V66h-1.9V64.1z"/>
		<path class="st0" d="M96.8,64.1V66h-1.9v-1.9H96.8z"/>
		<path class="st0" d="M61.8,156v1.9H60V156C60,156,61.8,156,61.8,156z"/>
		<path class="st0" d="M250.8,23v-1.9h1.9V23H250.8z"/>
		<path class="st0" d="M217.7,30h-1.8v-1.9h1.8V30z"/>
		<path class="st0" d="M125.8,66H124v-1.9h1.8V66z"/>
		<path class="st0" d="M130.9,64.1h1.9V66h-1.9V64.1z"/>
		<path class="st0" d="M137.9,64h1.8v1.9h-1.8V64z"/>
		<path class="st0" d="M118.8,50.1v1.8h-1.9v-1.8H118.8z"/>
		<path class="st0" d="M245.7,23h-1.8v-1.9h1.8V23z"/>
		<path class="st0" d="M109.9,52v-1.8h2V52H109.9z"/>
		<path class="st0" d="M165.9,65.9v-1.8h1.9v1.8H165.9z"/>
		<path class="st0" d="M172.9,64h1.8v1.9h-1.8L172.9,64L172.9,64z"/>
		<path class="st0" d="M181.7,66h-1.8v-1.9h1.9L181.7,66z"/>
		<path class="st0" d="M102.9,52v-1.8h1.9V52H102.9z"/>
		<path class="st0" d="M217.7,21.2v1.9h-1.9v-1.9H217.7z"/>
		<path class="st0" d="M203.7,66h-1.8v-1.9h1.8V66z"/>
		<path class="st0" d="M210.8,64.1V66h-1.9v-1.9H210.8z"/>
		<path class="st0" d="M215.9,66v-1.9h1.9V66H215.9z"/>
		<path class="st0" d="M88.1,157.9V156h1.9v1.9H88.1z"/>
		<path class="st0" d="M208.9,23v-1.9h1.9V23H208.9z"/>
		<path class="st0" d="M80.9,52v-1.8h1.9V52H80.9z"/>
		<path class="st0" d="M243.9,64h1.8v1.9h-1.8V64z"/>
		<path class="st0" d="M252.7,64.1v1.8h-1.9v-1.8H252.7z"/>
		<path class="st0" d="M259.8,64.1V66H258v-1.9H259.8z"/>
		<path class="st0" d="M73.9,52v-1.8h2V52H73.9z"/>
		<path class="st0" d="M203.8,23h-1.9v-1.9h1.8L203.8,23z"/>
		<path class="st0" d="M67.1,50.1h1.9V52h-1.9V50.1z"/>
		<path class="st0" d="M286,65.9v-1.8h1.8v1.8H286z"/>
		<path class="st0" d="M292.9,65.9v-1.8h1.9v1.8H292.9z"/>
		<path class="st0" d="M179.9,23v-1.9h1.9V23H179.9z"/>
		<path class="st0" d="M4,71.1H6V73H4V71.1z"/>
		<path class="st0" d="M11,73v-1.9H13V73H11z"/>
		<path class="st0" d="M19.9,71.1V73H18v-1.9H19.9z"/>
		<path class="st0" d="M96.8,156v1.9h-1.9V156C94.9,156,96.8,156,96.8,156z"/>
		<path class="st0" d="M174.8,21.2v1.9h-1.9v-1.9H174.8z"/>
		<path class="st0" d="M201.9,38v-1.9h1.9V38H201.9z"/>
		<path class="st0" d="M46,73v-1.9h1.8v1.8L46,73z"/>
		<path class="st0" d="M54.8,73H53v-1.9h1.8V73z"/>
		<path class="st0" d="M61.8,71.1V73H60v-1.9H61.8z"/>
		<path class="st0" d="M243.9,28.1h1.8V30h-1.8V28.1z"/>
		<path class="st0" d="M167.8,21.2v1.9h-1.9v-1.9H167.8z"/>
		<path class="st0" d="M250.8,28.1h1.9V30h-1.9V28.1z"/>
		<path class="st0" d="M89.8,71.1V73H88v-1.9H89.8z"/>
		<path class="st0" d="M96.8,73h-1.9v-1.9h1.9V73z"/>
		<path class="st0" d="M39,52v-1.8H41V52H39z"/>
		<path class="st0" d="M137.9,23.2v-2h1.9v1.9L137.9,23.2z"/>
		<path class="st0" d="M32,50.1h2v1.8h-2V50.1z"/>
		<path class="st0" d="M125.8,71.1V73h-1.9v-1.9H125.8z"/>
		<path class="st0" d="M132.8,73H131v-1.9h1.8V73z"/>
		<path class="st0" d="M139.8,71.1V73h-1.9v-1.9H139.8z"/>
		<path class="st0" d="M25,50.1H27V52H25V50.1z"/>
		<path class="st0" d="M130.8,21.1h2V23h-1.9L130.8,21.1z"/>
		<path class="st0" d="M257.9,30v-1.9h1.8V30C259.6,30,257.9,30,257.9,30z"/>
		<path class="st0" d="M167.8,71.1V73h-1.9v-1.9H167.8z"/>
		<path class="st0" d="M172.9,71.1h1.9v1.8h-1.9V71.1z"/>
		<path class="st0" d="M181.7,73h-1.8v-1.9h1.8V73z"/>
		<path class="st0" d="M125.8,157.9H124V156h1.8V157.9z"/>
		<path class="st0" d="M125.8,23H124v-1.9h1.8V23z"/>
		<path class="st0" d="M203.8,71.2v1.9h-1.9v-1.9H203.8z"/>
		<path class="st0" d="M210.8,71.2v1.9h-1.9v-1.9H210.8z"/>
		<path class="st0" d="M217.7,73h-1.8v-1.9h1.8V73z"/>
		<path class="st0" d="M130.9,156h1.9v1.9h-1.9V156z"/>
		<path class="st0" d="M96.8,21.2v1.9h-1.9v-1.9H96.8z"/>
		<path class="st0" d="M243.9,71.1h1.8V73h-1.8V71.1z"/>
		<path class="st0" d="M250.8,73v-1.9h1.9V73H250.8z"/>
		<path class="st0" d="M257.9,73v-1.9h1.9V73H257.9z"/>
		<path class="st0" d="M137.9,157.9V156h1.9v1.9H137.9z"/>
		<path class="st0" d="M89.9,21.1V23h-1.9v-1.9H89.9z"/>
		<path class="st0" d="M280.8,43.1V45h-1.9v-1.9H280.8z"/>
		<path class="st0" d="M287.8,71.1V73H286v-1.9H287.8z"/>
		<path class="st0" d="M292.9,73v-1.9h1.9V73H292.9z"/>
		<path class="st0" d="M60.1,21.1h1.8V23h-1.8V21.1z"/>
		<path class="st0" d="M6,80H4v-1.9H6V80z"/>
		<path class="st0" d="M11,80v-1.9H13V80H11z"/>
		<path class="st0" d="M18,78h1.8v2H18V78z"/>
		<path class="st0" d="M54.8,23H53v-1.9h1.9V23z"/>
		<path class="st0" d="M46,23v-1.9H48V23H46z"/>
		<path class="st0" d="M19.9,23.1H18v-2h1.8V23.1z"/>
		<path class="st0" d="M46,78H48v1.9H46V78z"/>
		<path class="st0" d="M55,78.1V80h-1.9v-1.9H55z"/>
		<path class="st0" d="M61.8,78.1V80H60v-1.9H61.8z"/>
		<path class="st0" d="M13,23H11v-1.9H13V23z"/>
		<path class="st0" d="M6,21.2v1.9H4v-1.9H6z"/>
		<path class="st0" d="M286,156h1.9v1.9H286V156z"/>
		<path class="st0" d="M88.1,78h1.8v1.9h-1.8V78z"/>
		<path class="st0" d="M94.9,80v-2h1.9v2H94.9z"/>
		<path class="st0" d="M292.9,156h1.9v1.9h-1.9V156z"/>
		<path class="st0" d="M278.9,14.1h1.9V16h-1.9V14.1z"/>
		<path class="st0" d="M273.9,14.2V16h-2v-1.8H273.9z"/>
		<path class="st0" d="M125.8,80h-1.9v-1.9h1.9V80z"/>
		<path class="st0" d="M132.8,80h-1.9v-2h1.9V80z"/>
		<path class="st0" d="M137.9,78h1.8v2h-1.8V78z"/>
		<path class="st0" d="M264.9,14.1h1.9V16h-1.9V14.1z"/>
		<path class="st0" d="M25,163h1.8v1.9H25V163z"/>
		<path class="st0" d="M165.9,80v-1.9h1.8V80H165.9z"/>
		<path class="st0" d="M172.9,78h1.8v2h-1.8L172.9,78L172.9,78z"/>
		<path class="st0" d="M179.9,78h1.8v2h-1.8V78z"/>
		<path class="st0" d="M34,163v1.8h-2V163H34z"/>
		<path class="st0" d="M238.7,16h-1.9v-1.9h1.9V16z"/>
		<path class="st0" d="M201.9,78h1.8v2h-1.8V78z"/>
		<path class="st0" d="M210.7,80h-1.8v-2h1.9L210.7,80z"/>
		<path class="st0" d="M217.7,80h-1.8v-2h1.8V80z"/>
		<path class="st0" d="M231.8,16h-2v-1.8h2V16z"/>
		<path class="st0" d="M224.8,14.2v1.9h-1.9v-1.9H224.8z"/>
		<path class="st0" d="M40.9,164.9H39V163h1.8V164.9z"/>
		<path class="st0" d="M243.9,78h1.9v1.9h-1.9V78z"/>
		<path class="st0" d="M252.7,80h-1.8v-2h1.8V80z"/>
		<path class="st0" d="M257.9,78h1.9v2h-1.9V78z"/>
		<path class="st0" d="M68.9,164.9h-2V163h1.9L68.9,164.9z"/>
		<path class="st0" d="M73.9,163h2v1.9h-2V163z"/>
		<path class="st0" d="M195.8,16h-1.9v-1.8h1.9V16z"/>
		<path class="st0" d="M287.8,78v2H286v-1.9L287.8,78z"/>
		<path class="st0" d="M292.9,78h1.9v2h-1.9V78z"/>
		<path class="st0" d="M273.9,43.2V45h-2v-1.8H273.9z"/>
		<path class="st0" d="M188.7,16h-1.8v-1.8h1.8V16z"/>
		<path class="st0" d="M266.8,45h-1.9v-1.9h1.9V45z"/>
		<path class="st0" d="M26.9,87H25v-1.9h1.9V87z"/>
		<path class="st0" d="M32,86.9v-1.8h2v1.8H32z"/>
		<path class="st0" d="M41,85.1v1.8H39v-1.8H41z"/>
		<path class="st0" d="M258,149h1.8v1.9H258V149z"/>
		<path class="st0" d="M250.9,149h1.9v1.9h-1.9V149z"/>
		<path class="st0" d="M245.7,149v1.9h-1.8V149H245.7z"/>
		<path class="st0" d="M68.8,87h-1.9v-1.8h1.9V87z"/>
		<path class="st0" d="M73.9,86.9v-1.8h2v1.8H73.9z"/>
		<path class="st0" d="M82.8,87h-1.9v-1.8h1.9V87z"/>
		<path class="st0" d="M286,30v-1.9h1.8V30C287.8,30,286,30,286,30z"/>
		<path class="st0" d="M82.8,163v1.9h-1.9V163H82.8z"/>
		<path class="st0" d="M104.8,85.1v1.8h-1.9v-1.8H104.8z"/>
		<path class="st0" d="M109.9,85.1h2v1.8h-2V85.1z"/>
		<path class="st0" d="M116.9,85.1h1.9v1.8h-1.9V85.1z"/>
		<path class="st0" d="M165.9,157.9V156h1.9v1.9H165.9z"/>
		<path class="st0" d="M215.9,150.9V149h1.8v1.9H215.9z"/>
		<path class="st0" d="M210.8,150.9h-1.9V149h1.9V150.9z"/>
		<path class="st0" d="M146.8,85.1v1.8h-1.9v-1.8H146.8z"/>
		<path class="st0" d="M151.8,86.9v-1.8h2v1.8H151.8z"/>
		<path class="st0" d="M160.8,87h-1.9v-1.9h1.9V87z"/>
		<path class="st0" d="M203.8,149v2h-1.9v-1.9L203.8,149z"/>
		<path class="st0" d="M102.9,163h1.9v1.8h-1.9V163z"/>
		<path class="st0" d="M238.7,45h-1.9v-1.9h1.9V45z"/>
		<path class="st0" d="M188.8,85.2V87h-1.9v-1.8H188.8z"/>
		<path class="st0" d="M195.8,87h-1.9v-1.8h1.9V87z"/>
		<path class="st0" d="M181.7,151h-1.8v-1.9h1.8V151z"/>
		<path class="st0" d="M172.9,150.9V149h1.9v1.8L172.9,150.9z"/>
		<path class="st0" d="M165.9,150.9V149h1.9v1.9H165.9z"/>
		<path class="st0" d="M222.9,85.1h1.9V87h-1.9V85.1z"/>
		<path class="st0" d="M231.7,87h-1.9v-1.9h1.9V87z"/>
		<path class="st0" d="M238.7,85.2V87h-1.8v-1.8H238.7z"/>
		<path class="st0" d="M229.8,45v-1.9h2V45H229.8z"/>
		<path class="st0" d="M111.8,164.9h-2V163h2V164.9z"/>
		<path class="st0" d="M224.8,43.2v1.9h-1.9v-1.9H224.8z"/>
		<path class="st0" d="M266.8,85.1v1.8h-1.9v-1.8H266.8z"/>
		<path class="st0" d="M273.8,87h-1.9v-1.8l1.9-0.1V87z"/>
		<path class="st0" d="M278.9,85.1h1.9v1.8h-1.9V85.1z"/>
		<path class="st0" d="M139.8,151h-1.8v-1.9h1.8V151z"/>
		<path class="st0" d="M130.9,149h1.9v1.9h-1.9V149z"/>
		<path class="st0" d="M125.8,149v1.9H124V149H125.8z"/>
		<path class="st0" d="M172.9,156h1.9v1.9h-1.9V156z"/>
		<path class="st0" d="M158.9,14.2h1.9v1.9h-1.9V14.2z"/>
		<path class="st0" d="M27,94H25v-1.8H27V94z"/>
		<path class="st0" d="M34,94h-2v-1.8h2V94z"/>
		<path class="st0" d="M41,94H39v-1.9H41V94z"/>
		<path class="st0" d="M181.7,157.9h-1.8V156h1.8V157.9z"/>
		<path class="st0" d="M94.9,150.9V149h1.9v1.9H94.9z"/>
		<path class="st0" d="M88.1,149h1.8v1.9h-1.8V149z"/>
		<path class="st0" d="M66.9,94v-1.8h2V94C68.9,94,66.9,94,66.9,94z"/>
		<path class="st0" d="M75.9,94h-2v-1.8h2V94z"/>
		<path class="st0" d="M82.8,92.1v1.8h-1.9v-1.8H82.8z"/>
		<path class="st0" d="M292.9,29.2h1.8v1.9h-1.8V29.2z"/>
		<path class="st0" d="M151.9,14.2h1.9v1.9h-1.9V14.2z"/>
		<path class="st0" d="M104.8,92.1v1.8h-1.9v-1.8H104.8z"/>
		<path class="st0" d="M111.9,92.1v1.8h-2v-1.8H111.9z"/>
		<path class="st0" d="M116.9,93.9v-1.8h1.9v1.8C118.8,93.9,116.9,93.9,116.9,93.9z"/>
		<path class="st0" d="M195.8,45h-2v-1.8h2V45z"/>
		<path class="st0" d="M60,150.9V149h1.9v1.8L60,150.9z"/>
		<path class="st0" d="M55,149v1.9h-1.9V149H55z"/>
		<path class="st0" d="M146.8,92.1v1.8h-1.9v-1.8H146.8z"/>
		<path class="st0" d="M151.9,92.1h2v1.8h-2V92.1z"/>
		<path class="st0" d="M158.9,93.9v-1.8h1.9v1.8H158.9z"/>
		<path class="st0" d="M48,149v1.9H46V149H48z"/>
		<path class="st0" d="M188.8,45h-1.9v-1.8h1.9V45z"/>
		<path class="st0" d="M146.8,16h-1.9v-1.8h1.9V16z"/>
		<path class="st0" d="M188.8,92.1v1.8h-1.9v-1.8H188.8z"/>
		<path class="st0" d="M195.8,92.1v1.8h-2v-1.8H195.8z"/>
		<path class="st0" d="M6,36v2H4.1v-1.9L6,36z"/>
		<path class="st0" d="M19.9,149v1.9H18V149H19.9z"/>
		<path class="st0" d="M13,149v1.9H11V149H13z"/>
		<path class="st0" d="M224.7,92.1v1.8h-1.8v-1.8H224.7z"/>
		<path class="st0" d="M231.8,94h-1.9v-1.9h1.9V94z"/>
		<path class="st0" d="M236.8,92h1.9v1.8h-1.9V92z"/>
		<path class="st0" d="M5.9,150.9H4V149h1.8V150.9z"/>
		<path class="st0" d="M118.8,164.9h-1.9V163h1.9V164.9z"/>
		<path class="st0" d="M292.9,142h1.9v1.9h-1.9V142z"/>
		<path class="st0" d="M264.9,94v-1.8h1.9V94C266.8,94,264.9,94,264.9,94z"/>
		<path class="st0" d="M271.9,92.1h1.9v1.8l-1.9,0.1V92.1z"/>
		<path class="st0" d="M280.8,93.9h-1.9V92h1.9V93.9z"/>
		<path class="st0" d="M287.8,142v1.9H286V142H287.8z"/>
		<path class="st0" d="M201.9,157.9V156h1.9v1.9H201.9z"/>
		<path class="st0" d="M146.8,164.9h-1.9V163h1.9V164.9z"/>
		<path class="st0" d="M4,101v-2H6v2H4z"/>
		<path class="st0" d="M13,101H11v-2H13V101z"/>
		<path class="st0" d="M19.9,101H18v-1.9h1.9V101z"/>
		<path class="st0" d="M151.8,164.8V163h2v1.8H151.8z"/>
		<path class="st0" d="M116.9,14.2h1.9v1.9h-1.9V14.2z"/>
		<path class="st0" d="M111.8,16h-2v-1.8h2V16z"/>
		<path class="st0" d="M46,99h1.8v1.9H46C46,100.9,46,99,46,99z"/>
		<path class="st0" d="M54.8,101H53v-2h1.8V101z"/>
		<path class="st0" d="M61.8,101H60v-1.9h1.9V101z"/>
		<path class="st0" d="M104.8,16h-1.9v-1.8h1.9V16z"/>
		<path class="st0" d="M160.8,164.9h-1.9V163h1.9V164.9z"/>
		<path class="st0" d="M188.8,164.9h-1.9V163h1.9V164.9z"/>
		<path class="st0" d="M89.8,99v2H88v-2H89.8z"/>
		<path class="st0" d="M96.8,101H95v-2h1.8V101z"/>
		<path class="st0" d="M81.1,14.2h1.9v1.9h-1.9V14.2z"/>
		<path class="st0" d="M73.9,14.2h2v1.9h-2V14.2z"/>
		<path class="st0" d="M68.8,16h-1.9v-1.8h1.9V16z"/>
		<path class="st0" d="M125.8,99v1.9h-1.9V99H125.8z"/>
		<path class="st0" d="M132.8,101h-1.9v-2h1.9V101z"/>
		<path class="st0" d="M137.9,101v-2h1.9v1.9L137.9,101z"/>
		<path class="st0" d="M195.8,164.9h-1.9V163h1.9V164.9z"/>
		<path class="st0" d="M224.7,163v1.8h-1.8V163H224.7z"/>
		<path class="st0" d="M229.8,163h2v1.9h-2V163z"/>
		<path class="st0" d="M165.9,101v-2h1.9v1.9L165.9,101z"/>
		<path class="st0" d="M172.9,101v-2h1.9v2H172.9z"/>
		<path class="st0" d="M181.7,101h-1.8v-1.9h1.9L181.7,101z"/>
		<path class="st0" d="M39,14.1h1.8V16H39V14.1z"/>
		<path class="st0" d="M32,14.2H34v1.9L32,16.2V14.2z"/>
		<path class="st0" d="M203.8,101h-1.9v-1.9h1.9V101z"/>
		<path class="st0" d="M210.8,99.1v1.9h-1.9v-1.9H210.8z"/>
		<path class="st0" d="M215.8,101v-2h1.9v2H215.8z"/>
		<path class="st0" d="M27,16H25v-1.8H27V16z"/>
		<path class="st0" d="M236.8,163h1.9v1.8h-1.9V163z"/>
		<path class="st0" d="M266.8,164.9H265V163h1.9L266.8,164.9z"/>
		<path class="st0" d="M245.7,101h-1.8v-2h1.8V101z"/>
		<path class="st0" d="M250.8,101v-2h1.9v1.9L250.8,101z"/>
		<path class="st0" d="M259.8,99v2h-1.9v-2H259.8z"/>
		<path class="st0" d="M273.9,163v1.8h-2V163H273.9z"/>
		<path class="st0" d="M278.9,163h1.9v1.9h-1.9V163z"/>
		<path class="st0" d="M285.9,99h1.8v1.9h-1.8V99z"/>
		<path class="st0" d="M292.9,101v-2h1.9v1.9L292.9,101z"/>
		<path class="st0" d="M6,107.9H4V106H6V107.9z"/>
		<path class="st0" d="M13,107.9H11v-1.8H13V107.9z"/>
		<path class="st0" d="M18,106h1.8v1.9H18V106z"/>
		<path class="st0" d="M210.8,156v1.9h-1.9V156C208.9,156,210.8,156,210.8,156z"/>
		<path class="st0" d="M279,7.2h1.8v1.9H279V7.2z"/>
		<path class="st0" d="M160.8,43.2V45h-1.9v-1.8H160.8z"/>
		<path class="st0" d="M48,106v1.8H46V106H48z"/>
		<path class="st0" d="M53.1,106h1.8v1.9h-1.8V106z"/>
		<path class="st0" d="M60.1,107.9V106h1.8v1.9H60.1z"/>
		<path class="st0" d="M153.8,45h-1.9v-1.9h1.9V45z"/>
		<path class="st0" d="M271.9,7.2h1.9V9h-1.9V7.2z"/>
		<path class="st0" d="M144.9,43.1h1.9V45h-1.9V43.1z"/>
		<path class="st0" d="M89.8,108H88v-1.9h1.8V108z"/>
		<path class="st0" d="M94.9,106h1.8v1.9h-1.8V106z"/>
		<path class="st0" d="M11,36.1H13V38H11V36.1z"/>
		<path class="st0" d="M266.8,7.2V9H265V7.2H266.8z"/>
		<path class="st0" d="M215.9,156h1.8v1.9h-1.8V156z"/>
		<path class="st0" d="M124.1,106h1.8v1.9h-1.8V106z"/>
		<path class="st0" d="M132.8,106v1.8h-1.9V106H132.8z"/>
		<path class="st0" d="M139.8,106v1.9h-1.9V106H139.8z"/>
		<path class="st0" d="M18,38v-1.9H20V38H18z"/>
		<path class="st0" d="M25,170H27v1.9H25V170z"/>
		<path class="st0" d="M118.8,43.2V45h-1.9v-1.8H118.8z"/>
		<path class="st0" d="M165.9,106h1.8v1.9h-1.8V106z"/>
		<path class="st0" d="M172.9,107.9v-1.8h1.9v1.8H172.9z"/>
		<path class="st0" d="M179.9,108v-2h1.9v1.9L179.9,108z"/>
		<path class="st0" d="M109.9,43.2h2V45h-2V43.2z"/>
		<path class="st0" d="M32,171.9v-1.8h2v1.8H32z"/>
		<path class="st0" d="M201.9,107.9v-1.8h1.8v1.8H201.9z"/>
		<path class="st0" d="M210.7,107.9h-1.8V106h1.8V107.9z"/>
		<path class="st0" d="M217.7,107.9h-1.8V106h1.8V107.9z"/>
		<path class="st0" d="M102.9,43.2h1.9V45h-1.9V43.2z"/>
		<path class="st0" d="M40.9,171.9H39V170h1.8V171.9z"/>
		<path class="st0" d="M48,36.1V38H46v-1.9H48z"/>
		<path class="st0" d="M245.7,108h-1.8v-1.9h1.8V108z"/>
		<path class="st0" d="M252.7,107.9h-1.9V106h1.9V107.9z"/>
		<path class="st0" d="M258,106h1.8v1.9H258V106z"/>
		<path class="st0" d="M53.1,36.1H55V38h-1.9V36.1z"/>
		<path class="st0" d="M238.7,9h-1.8V7.2h1.9L238.7,9z"/>
		<path class="st0" d="M82.9,43.2V45h-2v-1.8H82.9z"/>
		<path class="st0" d="M287.8,106v1.9H286V106H287.8z"/>
		<path class="st0" d="M292.9,106h1.9v1.9h-1.9V106z"/>
		<path class="st0" d="M229.8,7.2h2V9h-2V7.2z"/>
		<path class="st0" d="M6,115H4v-1.9H6V115z"/>
		<path class="st0" d="M13,115H11v-1.9H13V115z"/>
		<path class="st0" d="M18,115v-1.9H20v1.9H18z"/>
		<path class="st0" d="M73.9,45v-1.8h2V45H73.9z"/>
		<path class="st0" d="M224.7,9h-1.8V7.2h1.9L224.7,9z"/>
		<path class="st0" d="M67.1,43.2h1.9V45h-1.9V43.2z"/>
		<path class="st0" d="M48,113.1v1.8H46v-1.8H48z"/>
		<path class="st0" d="M53,115v-1.9h2v1.9H53z"/>
		<path class="st0" d="M61.8,115H60v-2h1.8V115z"/>
		<path class="st0" d="M243.9,157.9V156h1.9v1.9H243.9z"/>
		<path class="st0" d="M67.1,170h1.9v1.9h-1.9V170z"/>
		<path class="st0" d="M250.8,157.9V156h1.9v1.9H250.8z"/>
		<path class="st0" d="M89.8,115H88v-2h1.8V115z"/>
		<path class="st0" d="M96.8,113.1v1.9h-1.9v-1.9H96.8z"/>
		<path class="st0" d="M259.8,156v1.9H258V156C258,156,259.8,156,259.8,156z"/>
		<path class="st0" d="M73.9,170h2v1.8h-2V170z"/>
		<path class="st0" d="M40.9,45H39v-1.9h1.8V45z"/>
		<path class="st0" d="M125.8,115H124v-2h1.8V115z"/>
		<path class="st0" d="M132.8,115h-1.9v-1.9h1.9V115z"/>
		<path class="st0" d="M137.9,114.9v-1.8h1.9v1.8H137.9z"/>
		<path class="st0" d="M32,45v-1.8h2V45H32z"/>
		<path class="st0" d="M80.9,170h1.9v1.8h-1.9V170z"/>
		<path class="st0" d="M25,43.2H27v1.9H25V43.2z"/>
		<path class="st0" d="M165.9,114.9V113h1.8v1.9H165.9z"/>
		<path class="st0" d="M172.9,114.9V113h1.9v1.9H172.9z"/>
		<path class="st0" d="M181.7,113.1v1.9h-1.8v-1.9H181.7z"/>
		<path class="st0" d="M61.8,36.1V38H60v-1.9H61.8z"/>
		<path class="st0" d="M193.8,9V7.2h2V9H193.8z"/>
		<path class="st0" d="M201.9,115v-1.9h1.8v1.9H201.9z"/>
		<path class="st0" d="M210.8,113.1v1.9h-1.9v-1.9H210.8z"/>
		<path class="st0" d="M217.7,115h-1.8v-1.9h1.8V115z"/>
		<path class="st0" d="M89.8,36.1V38h-1.9v-1.9H89.8z"/>
		<path class="st0" d="M188.8,7.2V9h-1.9V7.2H188.8z"/>
		<path class="st0" d="M96.8,36.1V38h-1.9v-1.9H96.8z"/>
		<path class="st0" d="M245.8,113.1v1.9h-1.9v-1.9H245.8z"/>
		<path class="st0" d="M250.8,115v-1.9h1.9v1.9H250.8z"/>
		<path class="st0" d="M259.8,115h-1.9v-1.9h1.9V115z"/>
		<path class="st0" d="M104.8,171.9h-1.9V170h1.9V171.9z"/>
		<path class="st0" d="M292.9,38v-1.9h1.9V38H292.9z"/>
		<path class="st0" d="M286,113h1.8v1.9H286V113z"/>
		<path class="st0" d="M294.8,115h-1.9v-2h1.9V115z"/>
		<path class="st0" d="M109.9,170h2v1.8h-2V170z"/>
		<path class="st0" d="M6,122H4.1v-2H6V122z"/>
		<path class="st0" d="M13,122H11v-1.9H13V122z"/>
		<path class="st0" d="M18,122v-1.9H20v1.9H18z"/>
		<path class="st0" d="M116.9,171.9v-1.8h1.9v1.8H116.9z"/>
		<path class="st0" d="M158.9,9V7.2h1.9V9H158.9z"/>
		<path class="st0" d="M151.9,7.2h1.9v1.9h-1.9V7.2z"/>
		<path class="st0" d="M47.8,122H46v-1.9h1.8V122z"/>
		<path class="st0" d="M55,122h-1.9v-1.9H55V122z"/>
		<path class="st0" d="M60.1,120h1.8v1.9h-1.8V120z"/>
		<path class="st0" d="M146.8,9h-1.9V7.2h1.9V9z"/>
		<path class="st0" d="M144.9,171.9v-1.8h1.9v1.8H144.9z"/>
		<path class="st0" d="M151.9,171.8V170h1.9v1.8H151.9z"/>
		<path class="st0" d="M88.1,121.9V120h1.9v1.9H88.1z"/>
		<path class="st0" d="M95.1,120h1.8v1.9h-1.8V120z"/>
		<path class="st0" d="M160.8,171.9h-1.8v-1.8h1.8V171.9z"/>
		<path class="st0" d="M116.9,7.2h1.9V9h-1.9V7.2z"/>
		<path class="st0" d="M111.9,9h-2V7.2h2V9z"/>
		<path class="st0" d="M125.8,122H124v-2h1.8V122z"/>
		<path class="st0" d="M130.9,120h1.9v1.9h-1.9V120z"/>
		<path class="st0" d="M137.9,121.9V120h1.9v1.9H137.9z"/>
		<path class="st0" d="M104.8,9h-1.9V7.2h1.9V9z"/>
		<path class="st0" d="M186.9,171.9v-1.8h1.9v1.8H186.9z"/>
		<path class="st0" d="M193.8,170h2v1.8h-2V170z"/>
		<path class="st0" d="M167.8,120v1.9h-1.9V120H167.8z"/>
		<path class="st0" d="M172.9,120h1.9v1.9h-1.9V120z"/>
		<path class="st0" d="M179.9,120h1.8v1.9h-1.8V120z"/>
		<path class="st0" d="M81.1,7.2h1.9v1.9h-1.9V7.2z"/>
		<path class="st0" d="M73.9,7.2h2v1.9h-2V7.2z"/>
		<path class="st0" d="M203.8,122h-1.9v-2h1.9V122z"/>
		<path class="st0" d="M208.9,122v-1.9h1.9v1.9H208.9z"/>
		<path class="st0" d="M217.7,120v1.9h-1.8V120H217.7z"/>
		<path class="st0" d="M68.9,7.1V9h-2V7.2L68.9,7.1z"/>
		<path class="st0" d="M224.7,171.9h-1.8V170h1.9L224.7,171.9z"/>
		<path class="st0" d="M231.8,171.9h-2v-1.8h2V171.9z"/>
		<path class="st0" d="M243.9,122v-1.9h1.8v1.9H243.9z"/>
		<path class="st0" d="M250.8,121.9V120h1.9v1.9H250.8z"/>
		<path class="st0" d="M259.8,120v1.9h-1.9V120H259.8z"/>
		<path class="st0" d="M236.9,170h1.9v1.9h-1.9V170z"/>
		<path class="st0" d="M41,7.2V9H39V7.2H41z"/>
		<path class="st0" d="M34,9h-2V7.2h2V9z"/>
		<path class="st0" d="M285.9,121.9V120h1.9v1.9H285.9z"/>
		<path class="st0" d="M292.9,120h1.8v1.9h-1.8V120z"/>
		<path class="st0" d="M25,7.2H27v1.9H25V7.2z"/>
		<path class="st0" d="M285.9,38v-1.9h1.9V38H285.9z"/>
		<path class="st0" d="M258,142h1.8v1.9H258V142z"/>
		<path class="st0" d="M25,128.9v-1.8H27v1.8H25z"/>
		<path class="st0" d="M32,128.9v-1.8h2v1.8H32z"/>
		<path class="st0" d="M41,127v1.8H39V127H41z"/>
		<path class="st0" d="M250.9,142h1.8v1.9h-1.8V142z"/>
		<path class="st0" d="M245.8,142v1.9h-1.9V142H245.8z"/>
		<path class="st0" d="M123.9,38v-1.9h1.9V38H123.9z"/>
		<path class="st0" d="M67.1,127h1.8v1.9h-1.8V127z"/>
		<path class="st0" d="M75.8,128.9h-1.9v-1.8h1.9V128.9z"/>
		<path class="st0" d="M80.9,128.9V127h1.9v1.8L80.9,128.9z"/>
		<path class="st0" d="M266.8,171.9H265V170h1.9L266.8,171.9z"/>
		<path class="st0" d="M132.8,38h-1.9v-1.9h1.9V38z"/>
		<path class="st0" d="M102.9,127h1.9v1.8h-1.9V127z"/>
		<path class="st0" d="M109.9,127h1.9v1.9h-1.9V127z"/>
		<path class="st0" d="M117.1,127h1.8v1.8h-1.8V127z"/>
		<path class="st0" d="M215.9,144v-2h1.9v1.9L215.9,144z"/>
		<path class="st0" d="M208.9,142h1.9v1.9h-1.9V142z"/>
		<path class="st0" d="M203.8,142v1.9h-1.9V142H203.8z"/>
		<path class="st0" d="M144.9,127h1.9v1.9h-1.9V127z"/>
		<path class="st0" d="M153.8,128.9h-1.9v-1.8h1.9V128.9z"/>
		<path class="st0" d="M158.9,127h1.9v1.9h-1.9V127z"/>
		<path class="st0" d="M273.9,170v1.8h-2V170H273.9z"/>
		<path class="st0" d="M139.8,38h-1.8v-2h1.8V38z"/>
		<path class="st0" d="M179.9,143.9V142h1.8v1.9H179.9z"/>
		<path class="st0" d="M188.7,128.9h-1.8v-1.8h1.9L188.7,128.9z"/>
		<path class="st0" d="M193.8,128.9v-1.8h2v1.8H193.8z"/>
		<path class="st0" d="M174.7,143.9h-1.8V142h1.8V143.9z"/>
		<path class="st0" d="M167.8,143.9h-1.8V142h1.8V143.9z"/>
		<path class="st0" d="M257.9,38v-1.9h1.9V38H257.9z"/>
		<path class="st0" d="M224.7,128.9h-1.8V127h1.9L224.7,128.9z"/>
		<path class="st0" d="M229.8,127.1h1.9v1.8h-1.9V127.1z"/>
		<path class="st0" d="M236.8,127h1.9v1.8h-1.9V127z"/>
		<path class="st0" d="M280.8,170v1.8h-1.9V170H280.8z"/>
		<path class="st0" d="M252.8,38h-2v-1.9h1.9C252.7,36.7,252.8,37.3,252.8,38z"/>
		<path class="st0" d="M139.8,143.9h-1.8V142h1.8V143.9z"/>
		<path class="st0" d="M265,127h1.9v1.8H265V127z"/>
		<path class="st0" d="M273.9,127.1v1.8h-2v-1.8H273.9z"/>
		<path class="st0" d="M278.9,127h1.9v1.9h-1.9V127z"/>
		<path class="st0" d="M132.8,143.9h-1.9V142h1.9V143.9z"/>
		<path class="st0" d="M124.1,143.9V142h1.9v1.9H124.1z"/>
		<path class="st0" d="M245.7,38h-1.8v-1.9h1.8V38z"/>
		<path class="st0" d="M167.8,38h-1.9v-1.9h1.9V38z"/>
		<path class="st0" d="M294.8,0.2v1.9h-1.9V0.2H294.8z"/>
		<path class="st0" d="M287.8,0v2H286V0.1L287.8,0z"/>
		<path class="st0" d="M259.8,2.1h-1.9V0.2h1.9V2.1z"/>
		<path class="st0" d="M48,135v1.9H46V135H48z"/>
		<path class="st0" d="M53.1,136.9V135H55v1.9H53.1z"/>
		<path class="st0" d="M61.8,137H60v-1.9h1.8V137z"/>
		<path class="st0" d="M252.7,0.2v1.9h-1.8V0.2H252.7z"/>
		<path class="st0" d="M243.9,2V0.2h1.9V2H243.9z"/>
		<path class="st0" d="M217.7,0.1V2h-1.8V0.1H217.7z"/>
		<path class="st0" d="M89.8,135v1.9H88V135H89.8z"/>
		<path class="st0" d="M94.9,135h2v1.9h-2V135z"/>
		<path class="st0" d="M208.9,0.1h1.8V2h-1.8V0.1z"/>
		<path class="st0" d="M203.8,2.1h-1.9V0.2h1.9V2.1z"/>
		<path class="st0" d="M179.9,2V0.1h1.9V2H179.9z"/>
		<path class="st0" d="M124.1,135h1.8v1.9h-1.8V135z"/>
		<path class="st0" d="M132.8,135v1.9h-1.9V135H132.8z"/>
		<path class="st0" d="M139.8,137h-1.9v-1.9h1.9V137z"/>
		<path class="st0" d="M96.8,142v1.9h-1.9V142H96.8z"/>
		<path class="st0" d="M174.7,2.1h-1.8V0.2h1.8V2.1z"/>
		<path class="st0" d="M167.8,0.1V2h-1.9V0.1H167.8z"/>
		<path class="st0" d="M165.9,137v-1.9h1.9v1.9H165.9z"/>
		<path class="st0" d="M172.9,136.9V135h1.9v1.9H172.9z"/>
		<path class="st0" d="M181.7,137h-1.8v-1.9h1.8V137z"/>
		<path class="st0" d="M137.9,0.1h1.9V2h-1.9V0.1z"/>
		<path class="st0" d="M130.9,0.2h1.9v1.9h-1.9V0.2z"/>
		<path class="st0" d="M203.7,137h-1.8v-1.9h1.8V137z"/>
		<path class="st0" d="M210.7,137h-1.8v-1.9h1.8V137z"/>
		<path class="st0" d="M215.9,137v-1.9h1.9v1.9H215.9z"/>
		<path class="st0" d="M124.1,2V0.1h1.9V2H124.1z"/>
		<path class="st0" d="M96.8,0.2v1.9h-1.9V0.2H96.8z"/>
		<path class="st0" d="M89.8,0.2v1.9h-1.9V0.2H89.8z"/>
		<path class="st0" d="M243.9,136.9v-1.8h1.8v1.8H243.9z"/>
		<path class="st0" d="M252.7,137h-1.8v-1.9h1.8V137z"/>
		<path class="st0" d="M257.9,135h1.8v1.9h-1.8V135z"/>
		<path class="st0" d="M61.8,2.1H60V0.2h1.8V2.1z"/>
		<path class="st0" d="M53.1,0.1H55V2h-1.9V0.1z"/>
		<path class="st0" d="M46,2V0.1H48V2H46z"/>
		<path class="st0" d="M287.8,135v1.9h-1.9V135H287.8z"/>
		<path class="st0" d="M294.8,135v1.9h-1.9V135H294.8z"/>
		<path class="st0" d="M19.9,2.1H18V0.2h1.8V2.1z"/>
		<path class="st0" d="M6,143.9H4.1V142H6V143.9z"/>
		<path class="st0" d="M13,142v1.8H11V142H13z"/>
		<path class="st0" d="M18,143.9V142h1.8v1.9H18z"/>
		<path class="st0" d="M172.9,38v-1.9h1.9V38H172.9z"/>
		<path class="st0" d="M11,0.1H13V2H11V0.1z"/>
		<path class="st0" d="M181.7,36.1V38h-1.8v-1.9H181.7z"/>
		<path class="st0" d="M46,142h1.8v1.9H46C46,143.9,46,142,46,142z"/>
		<path class="st0" d="M55,142v1.9h-1.9V142H55z"/>
		<path class="st0" d="M60,142h1.8v1.9H60V142z"/>
		<path class="st0" d="M217.7,38h-1.8v-1.9h1.8V38z"/>
		<path class="st0" d="M4.1,0.1H6V2H4.1V0.1z"/>
		<path class="st0" d="M210.8,38h-2v-1.9h1.9C210.8,36.7,210.8,37.3,210.8,38z"/>
		<path class="st0" d="M88.1,142h1.8v1.9h-1.8V142z"/>
		<path class="st0" d="M292.9,85.1h1.9v1.8h-1.9V85.1z"/>
		<path class="st0" d="M18,134h1.8v1.8H18V134z"/>
		<path class="st0" d="M11,134H13v1.9H11V134z"/>
		<path class="st0" d="M6,135.9H4.1V134H6V135.9z"/>
		<path class="st0" d="M292.9,127h1.9v1.9h-1.9V127z"/>
		<path class="st0" d="M286,127h1.8v1.9H286V127z"/>
		<path class="st0" d="M258,127h1.8v1.8H258V127z"/>
		<path class="st0" d="M250.9,127h1.8v1.9h-1.8V127z"/>
		<path class="st0" d="M243.9,128.9V127h1.8v1.8L243.9,128.9z"/>
		<path class="st0" d="M217.7,127.1v1.8h-1.8v-1.8H217.7z"/>
		<path class="st0" d="M208.9,127h1.9v1.8h-1.9V127z"/>
		<path class="st0" d="M203.7,128.9h-1.8v-1.8h1.8V128.9z"/>
		<path class="st0" d="M181.7,127.1v1.8h-1.8v-1.8H181.7z"/>
		<path class="st0" d="M172.9,127h1.8v1.9h-1.8L172.9,127L172.9,127z"/>
		<path class="st0" d="M165.9,128.9v-1.8h1.8v1.8H165.9z"/>
		<path class="st0" d="M137.9,127h1.8v1.9h-1.8V127z"/>
		<path class="st0" d="M132.8,128.9h-1.9v-1.8h1.9V128.9z"/>
		<path class="st0" d="M125.8,128.9H124V127h1.8V128.9z"/>
		<path class="st0" d="M94.9,128.9V127h1.9v1.8L94.9,128.9z"/>
		<path class="st0" d="M89.8,128.9H88v-1.8h1.8V128.9z"/>
		<path class="st0" d="M60.1,128.9V127h1.8v1.8L60.1,128.9z"/>
		<path class="st0" d="M53.1,127h1.8v1.9h-1.8V127z"/>
		<path class="st0" d="M46,128.9V127h1.8v1.8L46,128.9z"/>
		<path class="st0" d="M19.9,128.9H18V127h1.8V128.9z"/>
		<path class="st0" d="M11,128.9v-1.8H13v1.8H11z"/>
		<path class="st0" d="M6,128.9H4v-1.8H6V128.9z"/>
		<path class="st0" d="M294.8,94h-1.9v-1.8h1.9V94z"/>
		<path class="st0" d="M286,92.1h1.8v1.8H286V92.1z"/>
		<path class="st0" d="M259.8,94H258v-1.8h1.8V94z"/>
		<path class="st0" d="M252.7,94h-1.8v-1.9h1.9L252.7,94z"/>
		<path class="st0" d="M243.9,93.9v-1.8h1.9v1.8C245.8,93.9,243.9,93.9,243.9,93.9z"/>
		<path class="st0" d="M217.7,94h-1.8v-1.9h1.8V94z"/>
		<path class="st0" d="M210.7,94h-1.8v-1.9h1.8V94z"/>
		<path class="st0" d="M203.7,94h-1.8v-1.8h1.8V94z"/>
		<path class="st0" d="M181.7,92.1v1.8h-1.8v-1.8H181.7z"/>
		<path class="st0" d="M172.9,93.9v-1.8h1.9v1.8C174.8,93.9,172.9,93.9,172.9,93.9z"/>
		<path class="st0" d="M165.9,93.9v-1.8h1.9v1.8C167.8,93.9,165.9,93.9,165.9,93.9z"/>
		<path class="st0" d="M137.9,92.1h1.8v1.8h-1.8V92.1z"/>
		<path class="st0" d="M130.9,92.1h1.9v1.8h-1.9V92.1z"/>
		<path class="st0" d="M125.8,92.1v1.8H124v-1.8H125.8z"/>
		<path class="st0" d="M95.1,92.1h1.9v1.8h-1.9V92.1z"/>
		<path class="st0" d="M88.1,93.9v-1.8h1.9v1.8H88.1z"/>
		<path class="st0" d="M60.1,92.1h1.8v1.8h-1.8V92.1z"/>
		<path class="st0" d="M53,93.9v-1.8h2v1.8H53z"/>
		<path class="st0" d="M46,92.1h1.8V94H46C46,94,46,92.1,46,92.1z"/>
		<path class="st0" d="M18,92.1h1.8V94H18V92.1z"/>
		<path class="st0" d="M13,94H11v-1.9H13V94z"/>
		<path class="st0" d="M4,93.9v-1.8H6v1.8C6,93.9,4,93.9,4,93.9z"/>
		<path class="st0" d="M139.8,45h-1.9v-1.9h1.8L139.8,45z"/>
		<path class="st0" d="M286,85.1h1.8v1.8H286V85.1z"/>
		<path class="st0" d="M257.9,86.9v-1.8h1.9v1.8H257.9z"/>
		<path class="st0" d="M250.8,85.1h1.9V87h-1.9V85.1z"/>
		<path class="st0" d="M245.7,87h-1.8v-1.9h1.8V87z"/>
		<path class="st0" d="M215.9,85.1h1.8v1.8h-1.8V85.1z"/>
		<path class="st0" d="M210.8,85.1v1.8h-1.9v-1.8H210.8z"/>
		<path class="st0" d="M203.8,87h-1.9v-1.9h1.8L203.8,87z"/>
		<path class="st0" d="M179.9,85.1h1.8v1.8h-1.8V85.1z"/>
		<path class="st0" d="M172.9,85.1h1.9v1.8h-1.9V85.1z"/>
		<path class="st0" d="M167.8,87H166v-1.9h1.8V87z"/>
		<path class="st0" d="M139.8,87h-1.9v-1.9h1.8L139.8,87z"/>
		<path class="st0" d="M130.9,85.1h1.9v1.8h-1.9V85.1z"/>
		<path class="st0" d="M125.8,87H124v-1.8h1.8V87z"/>
		<path class="st0" d="M96.8,87h-1.9v-1.9h1.8L96.8,87z"/>
		<path class="st0" d="M88.1,86.9v-1.8h1.8v1.8H88.1z"/>
		<path class="st0" d="M60.1,85.1h1.8v1.8h-1.8V85.1z"/>
		<path class="st0" d="M53,86.9v-1.8h1.9v1.8H53z"/>
		<path class="st0" d="M48,87H46v-1.9H48V87z"/>
		<path class="st0" d="M19.9,87H18v-1.9h1.8V87z"/>
		<path class="st0" d="M11,85.1h1.8V87H11V85.1z"/>
		<path class="st0" d="M4.1,85.1H6v1.8H4.1V85.1z"/>
		<path class="st0" d="M294.8,50.2V52h-1.9v-1.8H294.8z"/>
		<path class="st0" d="M287.8,50.2v1.9H286v-1.9H287.8z"/>
		<path class="st0" d="M257.9,50.1h1.8V52h-1.8V50.1z"/>
		<path class="st0" d="M250.8,52v-1.9h1.9V52H250.8z"/>
		<path class="st0" d="M245.7,52h-1.8v-1.9h1.8V52z"/>
		<path class="st0" d="M215.8,52v-1.8h1.9V52H215.8z"/>
		<path class="st0" d="M208.9,50.1h1.9V52h-1.9V50.1z"/>
		<path class="st0" d="M201.9,50.1h1.8V52h-1.8V50.1z"/>
		<path class="st0" d="M181.7,50.2v1.9h-1.8v-1.9H181.7z"/>
		<path class="st0" d="M172.9,50.1h1.9v1.8h-1.9V50.1z"/>
		<path class="st0" d="M167.8,50.2v1.9h-1.9v-1.9H167.8z"/>
		<path class="st0" d="M137.9,50.1h1.8v1.8h-1.8V50.1z"/>
		<path class="st0" d="M132.8,52h-1.9v-1.9h1.9V52z"/>
		<path class="st0" d="M125.8,52H124v-1.9h1.8V52z"/>
		<path class="st0" d="M94.9,52v-1.8h1.9V52H94.9z"/>
		<path class="st0" d="M88.1,52v-1.8h1.9V52H88.1z"/>
		<path class="st0" d="M60.1,52v-1.8h1.8V52H60.1z"/>
		<path class="st0" d="M54.8,52H53v-1.9h1.9V52z"/>
		<path class="st0" d="M48,50.2v1.9H46v-1.9H48z"/>
		<path class="st0" d="M19.9,50.2v1.9H18v-1.9H19.9z"/>
		<path class="st0" d="M13,52H11v-1.9H13V52z"/>
		<path class="st0" d="M6,52H4v-1.9H6V52z"/>
		<path class="st0" d="M294.8,45h-1.9v-1.9h1.9V45z"/>
		<path class="st0" d="M287.8,43.2v1.9H286v-1.9H287.8z"/>
		<path class="st0" d="M259.8,45H258v-1.8h1.8V45z"/>
		<path class="st0" d="M250.8,43.1h1.9V45h-1.9V43.1z"/>
		<path class="st0" d="M245.7,43.2v1.9h-1.8v-1.9H245.7z"/>
		<path class="st0" d="M217.7,43.2v1.9h-1.8v-1.9H217.7z"/>
		<path class="st0" d="M210.7,45h-1.8v-1.8h1.9L210.7,45z"/>
		<path class="st0" d="M201.9,45v-1.8h1.9V45H201.9z"/>
		<path class="st0" d="M181.7,43.2v1.9h-1.8v-1.9H181.7z"/>
		<path class="st0" d="M172.9,43.1h1.8V45h-1.8L172.9,43.1L172.9,43.1z"/>
		<path class="st0" d="M166.1,43.1h1.8V45h-1.8V43.1z"/>
		<path class="st0" d="M130.9,43.1h1.9V45h-1.9V43.1z"/>
		<path class="st0" d="M125.8,45H124v-1.9h1.8V45z"/>
		<path class="st0" d="M95.1,43.1h1.8V45h-1.8V43.1z"/>
		<path class="st0" d="M89.8,45H88v-1.9h1.8V45z"/>
		<path class="st0" d="M61.8,45H60v-1.9h1.8V45z"/>
		<path class="st0" d="M53,45v-1.8h1.9V45H53z"/>
		<path class="st0" d="M48,43.2V45H46v-1.8H48z"/>
		<path class="st0" d="M19.9,43.2v1.9H18v-1.9H19.9z"/>
		<path class="st0" d="M11,43.1H13V45H11V43.1z"/>
		<path class="st0" d="M4,45v-1.9H6V45H4z"/>
		<path class="st0" d="M292.9,14.1h1.9V16h-1.9V14.1z"/>
		<path class="st0" d="M287.8,14.2v1.9H286v-1.9H287.8z"/>
		<path class="st0" d="M259.8,14.2V16H258v-1.8H259.8z"/>
		<path class="st0" d="M4.1,163H6v1.8H4.1V163z"/>
		<path class="st0" d="M13,163v1.8H11V163H13z"/>
		<path class="st0" d="M20,163v1.8H18V163H20z"/>
		<path class="st0" d="M250.9,14.2h1.9v1.9h-1.9V14.2z"/>
		<path class="st0" d="M245.8,14.2v1.9h-1.9v-1.9H245.8z"/>
		<path class="st0" d="M215.8,16v-1.8h1.9V16H215.8z"/>
		<path class="st0" d="M47.8,164.9H46V163h1.8V164.9z"/>
		<path class="st0" d="M53.1,163h1.8v1.9h-1.8V163z"/>
		<path class="st0" d="M60.1,163h1.8v1.8h-1.8V163z"/>
		<path class="st0" d="M208.9,16v-1.9h1.9V16H208.9z"/>
		<path class="st0" d="M203.8,14.2V16h-1.9v-1.8H203.8z"/>
		<path class="st0" d="M179.9,14.2h1.8v1.9h-1.8V14.2z"/>
		<path class="st0" d="M89.9,163v1.8h-1.9V163H89.9z"/>
		<path class="st0" d="M94.9,164.9v-1.8h1.9v1.8H94.9z"/>
		<path class="st0" d="M174.8,14.2V16h-1.9v-1.8H174.8z"/>
		<path class="st0" d="M165.9,14.1h1.8V16h-1.8V14.1z"/>
		<path class="st0" d="M137.9,14.2h1.8v1.9h-1.8V14.2z"/>
		<path class="st0" d="M123.9,164.9v-1.8h1.9v1.8H123.9z"/>
		<path class="st0" d="M130.9,163h1.8v1.9h-1.8V163z"/>
		<path class="st0" d="M137.9,163h1.8v1.9h-1.8V163z"/>
		<path class="st0" d="M130.9,14.1h1.9V16h-1.9V14.1z"/>
		<path class="st0" d="M123.9,16v-1.8h1.8V16H123.9z"/>
		<path class="st0" d="M94.9,16v-1.9h1.9V16H94.9z"/>
		<path class="st0" d="M167.8,164.9h-1.9V163h1.8L167.8,164.9z"/>
		<path class="st0" d="M172.9,164.9v-1.8h1.9v1.8H172.9z"/>
		<path class="st0" d="M179.9,164.9V163h1.8v1.8L179.9,164.9z"/>
		<path class="st0" d="M88.1,14.2h1.8v1.9h-1.8V14.2z"/>
		<path class="st0" d="M61.8,16H60v-1.8h1.8V16z"/>
		<path class="st0" d="M201.9,164.9v-1.8h1.8v1.8H201.9z"/>
		<path class="st0" d="M210.7,164.9h-1.8V163h1.9L210.7,164.9z"/>
		<path class="st0" d="M215.9,163h1.8v1.9h-1.8V163z"/>
		<path class="st0" d="M54.8,16H53v-1.8h1.9V16z"/>
		<path class="st0" d="M46,16v-1.8H48V16H46z"/>
		<path class="st0" d="M18,16v-1.8H20V16H18z"/>
		<path class="st0" d="M245.7,164.9h-1.8V163h1.8V164.9z"/>
		<path class="st0" d="M250.9,163h1.9v1.9h-1.9V163z"/>
		<path class="st0" d="M257.9,164.9v-1.8h1.9v1.8H257.9z"/>
		<path class="st0" d="M11,14.2H13v1.9H11V14.2z"/>
		<path class="st0" d="M6,14.2V16H4v-1.8H6z"/>
		<path class="st0" d="M292.9,7.2h1.8v1.9h-1.8V7.2z"/>
		<path class="st0" d="M287.8,163v1.8H286V163H287.8z"/>
		<path class="st0" d="M294.8,163v1.8h-1.9V163H294.8z"/>
		<path class="st0" d="M286,7.2h1.8v1.9H286V7.2z"/>
		<path class="st0" d="M6,171.9H4.1V170H6V171.9z"/>
		<path class="st0" d="M13,170v1.8H11V170H13z"/>
		<path class="st0" d="M19.9,171.9H18V170h1.8V171.9z"/>
		<path class="st0" d="M258,7.2h1.8v1.9H258V7.2z"/>
		<path class="st0" d="M252.7,9h-1.9V7.2h1.9V9z"/>
		<path class="st0" d="M245.8,7.2V9h-1.9V7.2H245.8z"/>
		<path class="st0" d="M46,170h1.8v1.9H46C46,171.9,46,170,46,170z"/>
		<path class="st0" d="M53,171.9v-1.8h1.9v1.8H53z"/>
		<path class="st0" d="M60.1,170h1.8v1.8h-1.8V170z"/>
		<path class="st0" d="M217.7,7.2V9h-1.8V7.2H217.7z"/>
		<path class="st0" d="M208.9,7.2h1.8v1.9h-1.8V7.2z"/>
		<path class="st0" d="M201.9,7.2h1.8v1.9h-1.8V7.2z"/>
		<path class="st0" d="M88.1,170h1.8v1.8h-1.8V170z"/>
		<path class="st0" d="M96.8,170v1.8h-1.9V170H96.8z"/>
		<path class="st0" d="M179.9,9V7.2h1.9V9H179.9z"/>
		<path class="st0" d="M172.9,9V7.2h1.9V9H172.9z"/>
		<path class="st0" d="M167.8,7.2V9h-1.9V7.2H167.8z"/>
		<path class="st0" d="M125.8,170v1.8H124V170H125.8z"/>
		<path class="st0" d="M132.8,170v1.8h-1.9V170H132.8z"/>
		<path class="st0" d="M139.8,171.9h-1.8V170h1.8V171.9z"/>
		<path class="st0" d="M137.9,9V7.2h1.9V9H137.9z"/>
		<path class="st0" d="M130.9,9V7.2h1.9V9H130.9z"/>
		<path class="st0" d="M124.1,9V7.2h1.8V9H124.1z"/>
		<path class="st0" d="M167.8,170v1.8H166V170H167.8z"/>
		<path class="st0" d="M174.8,170v1.8h-1.9V170H174.8z"/>
		<path class="st0" d="M181.7,171.9h-1.8V170h1.8V171.9z"/>
		<path class="st0" d="M94.9,9V7.2h1.9V9H94.9z"/>
		<path class="st0" d="M88.1,9V7.2h1.8V9H88.1z"/>
		<path class="st0" d="M201.9,171.9v-1.8h1.9v1.8H201.9z"/>
		<path class="st0" d="M208.9,170h1.9v1.9h-1.9V170z"/>
		<path class="st0" d="M215.9,170h1.8v1.9h-1.8V170z"/>
		<path class="st0" d="M60,9V7.2h1.8V9H60z"/>
		<path class="st0" d="M54.8,9H53V7.2h1.9V9z"/>
		<path class="st0" d="M46,9V7.2H48V9H46z"/>
		<path class="st0" d="M245.7,171.9h-1.8V170h1.8V171.9z"/>
		<path class="st0" d="M250.8,171.9v-1.8h1.9v1.8H250.8z"/>
		<path class="st0" d="M259.8,170v1.8H258V170H259.8z"/>
		<path class="st0" d="M18,7.2h1.8V9H18V7.2z"/>
		<path class="st0" d="M11,9V7.2H13V9H11z"/>
		<path class="st0" d="M4,9V7.2H6V9H4z"/>
		<path class="st0" d="M286,171.9v-1.8h1.8v1.8H286z"/>
		<path class="st0" d="M294.8,170v1.8h-1.9V170H294.8z"/>
		<path class="st0" d="M279.9,176.7l1,0.7c-0.3,0.2-0.7,0.4-1.1,0.5c-0.3,0-0.6-0.3-0.9-0.5L279.9,176.7z"/>
		<path class="st0" d="M272.8,176.7l1.1,0.7c-0.4,0.2-0.7,0.5-1,0.5s-0.7-0.3-1-0.4L272.8,176.7z"/>
		<path class="st0" d="M265.8,176.7l1,0.7c-0.3,0.2-0.6,0.5-0.9,0.5c-0.4-0.1-0.8-0.3-1.1-0.5L265.8,176.7z"/>
		<path class="st0" d="M26,176.6l1.1,0.8c-0.3,0.1-0.6,0.4-0.9,0.4c-0.4-0.1-0.8-0.2-1.2-0.4L26,176.6z"/>
		<path class="st0" d="M33.1,176.7l0.8,0.8c-0.4,0.2-0.7,0.3-1.2,0.4c-0.3,0-0.6-0.3-0.9-0.5L33.1,176.7z"/>
		<path class="st0" d="M40,178.2l-0.9-0.8c0.3-0.2,0.7-0.5,1-0.5c0.4,0.1,0.7,0.3,1,0.5L40,178.2z"/>
		<path class="st0" d="M237.7,176.6l1.1,0.8c-0.3,0.2-0.7,0.4-1,0.4s-0.7-0.3-1-0.4L237.7,176.6z"/>
		<path class="st0" d="M230.8,178.2l-1-0.7c0.3-0.2,0.7-0.4,1.1-0.5c0.3,0,0.7,0.3,1,0.4L230.8,178.2z"/>
		<path class="st0" d="M223.8,176.7l1,0.7c-0.3,0.2-0.6,0.5-0.9,0.5c-0.4-0.1-0.8-0.3-1.1-0.5L223.8,176.7z"/>
		<path class="st0" d="M67.9,176.7l1,0.7c-0.3,0.2-0.6,0.5-0.9,0.5c-0.4-0.1-0.8-0.3-1.1-0.5L67.9,176.7z"/>
		<path class="st0" d="M75.1,176.7l0.9,0.8c-0.3,0.2-0.7,0.4-1.1,0.4c-0.3,0-0.6-0.3-1-0.5L75.1,176.7z"/>
		<path class="st0" d="M81.8,178.2l-1-0.8c0.3-0.2,0.6-0.5,1-0.5c0.4,0.1,0.7,0.3,1,0.5L81.8,178.2z"/>
		<path class="st0" d="M195.1,176.7l0.8,0.8c-0.4,0.2-0.7,0.3-1.1,0.4c-0.3,0-0.6-0.3-0.9-0.5L195.1,176.7z"/>
		<path class="st0" d="M187.8,178.2l-1-0.8c0.3-0.2,0.7-0.4,1.1-0.5c0.3,0,0.6,0.3,0.9,0.5L187.8,178.2z"/>
		<path class="st0" d="M104.1,176.7l0.9,0.7c-0.4,0.2-0.7,0.5-1,0.5s-0.6-0.3-1-0.5L104.1,176.7z"/>
		<path class="st0" d="M110.9,176.7l1,0.7c-0.3,0.2-0.7,0.4-1.1,0.5c-0.3,0-0.7-0.3-1-0.4L110.9,176.7z"/>
		<path class="st0" d="M117.9,176.7l0.9,0.8c-0.3,0.2-0.7,0.4-1.1,0.5c-0.3,0-0.6-0.3-0.9-0.5L117.9,176.7z"/>
		<path class="st0" d="M159.8,176.6l1.1,0.8c-0.3,0.2-0.7,0.4-1,0.4s-0.7-0.3-1-0.4L159.8,176.6z"/>
		<path class="st0" d="M152.8,178.2l-0.9-0.8c0.3-0.2,0.7-0.4,1.1-0.4c0.3,0,0.6,0.3,1,0.5L152.8,178.2z"/>
		<path class="st0" d="M145.9,178.2l-1.1-0.8c0.3-0.1,0.7-0.4,1-0.4c0.4,0.1,0.7,0.2,1,0.4L145.9,178.2z"/>
		<path class="st0" d="M137.9,177h1.7l0.2,0.2c-0.2,0.2-0.5,0.7-0.7,0.7C138.8,177.9,137.8,178.4,137.9,177z"/>
		<path class="st0" d="M131.1,176.7l1.8,0.7c-0.3,0.2-0.6,0.4-1,0.5C131.3,178,130.6,178,131.1,176.7z"/>
		<path class="st0" d="M123.9,177h2c0,0.3,0,0.8-0.1,0.8c-0.5,0.1-1.1,0.1-1.6,0C124.1,177.8,124.1,177.3,123.9,177z"/>
		<path class="st0" d="M165.8,176.9h2c0,0.3,0,0.8-0.1,0.8c-0.5,0.1-1.1,0.1-1.6,0.1C166.1,177.8,165.9,177.3,165.8,176.9z"/>
		<path class="st0" d="M174.7,177c0.3,0.9-0.2,1-0.8,0.9c-0.6-0.1-1.3,0.1-1-0.9H174.7z"/>
		<path class="st0" d="M179.9,177h1.8c0.3,0.7,0,1-0.7,0.9C180.6,177.9,179.7,178.2,179.9,177z"/>
		<path class="st0" d="M96.6,176.7c0.5,1.2,0,1.3-0.6,1.2c-0.4-0.1-0.8-0.3-1.1-0.5L96.6,176.7z"/>
		<path class="st0" d="M89.8,177.7c-0.7-0.1-1.7,0.8-1.9-0.8C88.8,177.1,89.6,176.4,89.8,177.7z"/>
		<path class="st0" d="M203.7,177.8c-0.7-0.1-1.8,0.8-1.9-0.8C202.7,177.1,203.7,176.4,203.7,177.8z"/>
		<path class="st0" d="M210.7,176.7c0.5,1.2,0,1.3-0.7,1.2c-0.4-0.1-0.7-0.3-1.1-0.5L210.7,176.7z"/>
		<path class="st0" d="M215.9,177h1.8c0.3,0.7,0,1-0.7,0.9C216.4,177.9,215.7,178.2,215.9,177z"/>
		<path class="st0" d="M59.8,176.9h2c0,0.3,0,0.6-0.1,0.8c-0.5,0.1-1.1,0.1-1.6,0.1C60.1,177.8,60,177.3,59.8,176.9z"/>
		<path class="st0" d="M53.1,176.7l1.8,0.7c-0.3,0.2-0.6,0.4-1,0.5C53.3,178,52.8,178,53.1,176.7z"/>
		<path class="st0" d="M46,177h1.8c0.3,0.7,0.1,1-0.7,0.9C46.6,177.9,45.8,178.2,46,177z"/>
		<path class="st0" d="M245.7,177c0.4,0.9-0.1,1-0.8,0.9c-0.7-0.1-1.3,0.1-1-0.9H245.7z"/>
		<path class="st0" d="M250.8,177h1.8l0.2,0.3c-0.2,0.2-0.5,0.6-0.8,0.6C251.7,177.9,250.7,178.4,250.8,177z"/>
		<path class="st0" d="M257.8,176.9h2c0,0.3,0,0.8-0.1,0.8c-0.5,0.1-1.1,0.1-1.6,0.1C258,177.8,257.9,177.3,257.8,176.9z"/>
		<path class="st0" d="M18,177h2c0,0.3,0,0.8-0.1,0.8c-0.5,0.1-1.1,0.1-1.6,0.1C18,177.8,18,177.3,18,177z"/>
		<path class="st0" d="M12.9,177c0.3,0.9-0.2,1-0.8,0.9c-0.6-0.1-1.3,0.2-1-0.9H12.9z"/>
		<path class="st0" d="M6,177c0,1.6-1.2,0.6-1.7,1C4,176.9,4,176.9,6,177z"/>
		<path class="st0" d="M287.7,177c0.4,0.9-0.1,1-0.8,0.9c-0.7-0.1-1.3,0.1-1-0.9H287.7z"/>
		<path class="st0" d="M293.1,176.7l1.8,0.7c-0.3,0.2-0.6,0.4-1,0.5C293.2,178,292.6,178,293.1,176.7z"/>
	</g>
</g>
</svg>
