<svg xmlns="http://www.w3.org/2000/svg" viewBox="0 0 652.34 24.43"><defs><style>.cls-1{fill:none;stroke:#999;stroke-miterlimit:10;}</style></defs><g id="圖層_2" data-name="圖層 2"><g id="圖層_1-2" data-name="圖層 1"><path class="cls-1" d="M0,4.05C12.55,4,12.65,24,25.2,23.93s12.43-20.08,25-20.15S62.83,23.72,75.37,23.65,87.8,3.57,100.35,3.5s12.65,20,25.2,19.88S138,3.3,150.53,3.23s12.65,20,25.19,19.88S188.16,3,200.7,3s12.65,19.94,25.2,19.87,12.43-20.08,25-20.14,12.65,19.94,25.2,19.87,12.43-20.08,25-20.15,12.65,20,25.2,19.88,12.43-20.08,25-20.15S363.89,22.08,376.43,22s12.44-20.08,25-20.14,12.65,19.94,25.2,19.87,12.43-20.08,25-20.15,12.66,20,25.2,19.88,12.44-20.08,25-20.15S514.43,21.26,527,21.2,539.41,1.11,552,1.05,564.61,21,577.16,20.92,589.6.84,602.15.77s12.65,20,25.2,19.88S639.79.57,652.34.5"/></g></g></svg>