<svg xmlns="http://www.w3.org/2000/svg" viewBox="0 0 356.81 330.72"><defs><style>.cls-1{fill:#fdedcf;}.cls-2{fill:#9f6756;}.cls-3{fill:#793a28;}.cls-4{fill:#263138;}.cls-5{fill:#eca613;}.cls-6{opacity:0.3;}.cls-7{fill:#040000;}.cls-8{fill:#445963;}.cls-9{fill:#e0e0e0;}.cls-10{fill:#ebebeb;}.cls-11{fill:#fff;}</style></defs><g id="圖層_2" data-name="圖層 2"><g id="圖層_1-2" data-name="圖層 1"><g id="旗艦版_svg" data-name="旗艦版 svg"><ellipse id="Ellipse_2" data-name="Ellipse 2" class="cls-1" cx="152.41" cy="206.15" rx="138.28" ry="124.57"/><g id="freepik--character-2--inject-470"><path id="Path_2238" data-name="Path 2238" class="cls-2" d="M264.68,64.14c-.88-3.78,3.57-16.83.7-17.12-3.67-.37-4.29,14.48-4.46,15.79s-2.05,1.11-1.87,0c.27-1.71,2.71-18.5-1-18.53-2.05,0-2.14,3.71-2.14,3.71s-1.38,16.54-3.13,16.46-.5-9.49-.32-13-1.5-5.29-2.75-3.84c-1.82,2.12-1.8,10.66-2,14s-1.12,13-4.59,8.19-7.91-7.28-9.55-7.11-1.94,2.53-.35,3.45a22.35,22.35,0,0,1,4.33,4.14A21.33,21.33,0,0,1,240,74.41a18.45,18.45,0,0,1,1.81,5.84,11.52,11.52,0,0,0,5.1,8l-.2,26.5-.79,13,20.64,7.16-2.72-46.78c1-9,5-20.35,6.42-25.62,2.3-8.41,1.22-8.76.2-8.81C268.22,53.62,265.52,67.82,264.68,64.14Z"/><path id="Path_2239" data-name="Path 2239" class="cls-3" d="M262,75.53a21.88,21.88,0,0,0-2.53.42,9.94,9.94,0,0,0-5,3.45,9.46,9.46,0,0,0-1,1.64l-.13.26-.2-.2a14.86,14.86,0,0,0-3.91-2.86c-1.12-.54-1.8-.76-1.79-.82a5.81,5.81,0,0,1,1.9.58,13.06,13.06,0,0,1,4.1,2.8l-.34.06a9.64,9.64,0,0,1,1-1.71,9.91,9.91,0,0,1,2.65-2.39,9.15,9.15,0,0,1,2.66-1.11,8.09,8.09,0,0,1,1.9-.22A2.61,2.61,0,0,1,262,75.53Z"/><path id="Path_2240" data-name="Path 2240" class="cls-3" d="M261,88a15.37,15.37,0,0,1-8.91.29c0-.13,2,.18,4.46.1S261,87.83,261,88Z"/><path id="Path_2241" data-name="Path 2241" class="cls-4" d="M136.27,18.81A15.51,15.51,0,0,1,149,4.88a20,20,0,0,0,5.24-1,30.1,30.1,0,0,0,3.62-2.43A10.36,10.36,0,0,1,170.64,3.2c3,3.27,3.72-1.63,10.38,1.71,5.57,2.78,3.07,7.35,3.07,7.35a11.87,11.87,0,0,1,12.43,8.56c.88,3.34.48,7.57,3.34,9.61,1.37,1,3.19,1.11,4.6,2.09,2.61,1.74,3,5.42,2.62,8.54s-1.06,6.43.29,9.26c2.23,4.65,9.15,6,10.35,11,.57,2.36-.24,5.29,1.56,6.94a8.19,8.19,0,0,0,2.6,1.28,10.85,10.85,0,0,1,1.79,19.18c-.93.59-2,1.12-2.34,2.23s.52,2.33,1.11,3.34a10.43,10.43,0,0,1-13.82,14.54,16.35,16.35,0,0,1-9,8.27,9.92,9.92,0,0,1-5.67.56,11.47,11.47,0,0,1-4.08-2.13c-5.87-4.45-14.15-11.23-15.19-18.51"/><path id="Path_2242" data-name="Path 2242" class="cls-2" d="M136.14,30.15l-.26-5.21L167,18c9.64-1.32,20.38,8,21.29,17.7,1,10.75,1.83,23.92.8,32C187,83.94,174.7,86.38,174.7,86.38l.43,16L139.41,104Z"/><path id="Path_2243" data-name="Path 2243" class="cls-4" d="M182.44,47.46a2.06,2.06,0,0,1-1.94,2.15,2,2,0,0,1-2.22-1.74v-.06a2.08,2.08,0,0,1,1.93-2.15,2,2,0,0,1,2.22,1.71A.28.28,0,0,1,182.44,47.46Z"/><path id="Path_2244" data-name="Path 2244" class="cls-4" d="M185.1,42.68c-.25.28-1.86-.83-4.08-.75s-3.84,1.23-4.08,1,.12-.62.81-1.12A5.81,5.81,0,0,1,181,40.68a5.49,5.49,0,0,1,3.25.93C185,42.08,185.23,42.56,185.1,42.68Z"/><path id="Path_2245" data-name="Path 2245" class="cls-4" d="M161.62,48.5a2.07,2.07,0,0,1-1.92,2.16,2,2,0,0,1-2.22-1.72h0s0-.06,0-.09a2.09,2.09,0,0,1,1.93-2.16,2,2,0,0,1,2.22,1.74h0Z"/><path id="Path_2246" data-name="Path 2246" class="cls-4" d="M163.19,43.79c-.24.27-1.86-.84-4.08-.77s-3.83,1.25-4.08,1,.12-.62.82-1.12a5.79,5.79,0,0,1,3.26-1.11,5.42,5.42,0,0,1,3.26.95C163.07,43.17,163.32,43.65,163.19,43.79Z"/><path id="Path_2247" data-name="Path 2247" class="cls-4" d="M171.79,60.07a14.45,14.45,0,0,1,3.61-.77c.57-.08,1.12-.21,1.18-.6a2.88,2.88,0,0,0-.42-1.67l-1.83-4.29c-2.52-6.09-4.37-11.14-4.13-11.21s2.5,4.75,5,10.86c.6,1.5,1.19,2.94,1.73,4.31a3.2,3.2,0,0,1,.37,2.23,1.38,1.38,0,0,1-.91.85,3.46,3.46,0,0,1-1,.17A15.11,15.11,0,0,1,171.79,60.07Z"/><path id="Path_2248" data-name="Path 2248" class="cls-3" d="M174.71,86.42a42.67,42.67,0,0,1-22.38-5.12s5.82,11.14,22.49,9.15Z"/><path id="Path_2249" data-name="Path 2249" class="cls-3" d="M171,65.47a4,4,0,0,0-3.66-1.38,3.64,3.64,0,0,0-2.48,1.44,2.32,2.32,0,0,0-.1,2.66,2.73,2.73,0,0,0,3,.65,8.67,8.67,0,0,0,2.8-1.78,2.64,2.64,0,0,0,.61-.68.76.76,0,0,0,0-.84"/><path id="Path_2250" data-name="Path 2250" class="cls-4" d="M165.29,61.81c.35,0,.43,2.39,2.56,4s4.69,1.32,4.72,1.65c0,.16-.55.49-1.64.56A6.11,6.11,0,0,1,167,66.82a5.27,5.27,0,0,1-2-3.4C164.87,62.41,165.12,61.81,165.29,61.81Z"/><path id="Path_2251" data-name="Path 2251" class="cls-4" d="M163.5,35c-.2.62-2.43.4-5,.8s-4.7,1.17-5.07.64c-.16-.26.19-.84,1-1.45a8.87,8.87,0,0,1,7.7-1.12C163.08,34.27,163.58,34.73,163.5,35Z"/><path id="Path_2252" data-name="Path 2252" class="cls-4" d="M184.08,36.26c-.38.52-1.93,0-3.78.07s-3.4.45-3.77-.07c-.17-.25.06-.77.73-1.27a5.43,5.43,0,0,1,6.08,0C184,35.49,184.25,36,184.08,36.26Z"/><path id="Path_2253" data-name="Path 2253" class="cls-4" d="M191,15.9c-2.23,5.82-7.4,14.63-13.53,15.68a18.3,18.3,0,0,1-16.71-6.14c-.71,4.65-5.7,7.33-10.29,8.32a18.51,18.51,0,0,1-9.85-.19,9.77,9.77,0,0,1-6.56-6.89c-.66-3.25,3.61-11.54,6.85-12.25"/><path id="Path_2254" data-name="Path 2254" class="cls-4" d="M146.68,101.84a12.75,12.75,0,0,1-8.49,11.94A9,9,0,0,1,121,118.52a11.3,11.3,0,0,0-1.52-3c-1.71-1.88-4.77-1.27-7.24-1.88-4.45-1.11-6.74-6.3-6.57-10.9a11.71,11.71,0,0,0-.07-2.71c-.4-1.81-1.94-3.11-3.11-4.54-4.83-5.9-3.65-15.07.79-21.28,1.49-2.06,3.35-4.25,3.06-6.77a13.89,13.89,0,0,0-1.67-3.9,11.56,11.56,0,0,1,2.22-12.77,2.52,2.52,0,0,0,1.12-3A13.49,13.49,0,0,1,118.37,32.6a3.18,3.18,0,0,0,1.17-.35c1-.61.94-2,1-3.21.15-3.1,2.11-9,4.3-11.14,6.1-6,12.73-1.95,15.14,0,0,0,6,21.76,5.47,25.93S142.58,58.47,144.1,63s4.18,14,2.6,18.29S146.68,101.84,146.68,101.84Z"/><path id="Path_2255" data-name="Path 2255" class="cls-5" d="M185.85,283s47.16,13.05,49,13.72c2.84,1,2.36,11.4-2.06,11.24-2.09-.08-36.22,1.27-40.53,1S175,303.59,175,303.59Z"/><path id="Path_2256" data-name="Path 2256" class="cls-4" d="M205.5,301c.23,0,.55-2.46,2.08-5.05s3.48-4.16,3.34-4.35-2.43,1.12-4,4S205.3,301,205.5,301Z"/><path id="Path_2257" data-name="Path 2257" class="cls-4" d="M200.57,298.78c.24,0,.72-2.23,2-4.65s2.74-4.19,2.56-4.35-2,1.39-3.27,4A9.87,9.87,0,0,0,200.57,298.78Z"/><path id="Path_2258" data-name="Path 2258" class="cls-4" d="M196,297.54c.25,0,.06-2.36,1.12-5s2.74-4.23,2.57-4.45-2.23,1.28-3.34,4.12S195.77,297.61,196,297.54Z"/><path id="Path_2259" data-name="Path 2259" class="cls-4" d="M196.81,291.48a8.56,8.56,0,0,0,.5-3.51,16.62,16.62,0,0,0-.48-3.84,14.42,14.42,0,0,0-.7-2.23,2.52,2.52,0,0,0-.76-1.11,1.24,1.24,0,0,0-1.61.07,2.2,2.2,0,0,0-.64,1.34,10.45,10.45,0,0,0-.05,1.25,9.86,9.86,0,0,0,.29,2.3,13.79,13.79,0,0,0,1.45,3.61,9.35,9.35,0,0,0,2.12,2.83c.1-.07-.69-1.17-1.62-3.1a15,15,0,0,1-1.24-3.5,10.43,10.43,0,0,1-.23-2.16c0-.72,0-1.63.43-2a.45.45,0,0,1,.62-.06,1.88,1.88,0,0,1,.53.83,18.32,18.32,0,0,1,1.33,5.76C196.89,290.1,196.68,291.48,196.81,291.48Z"/><path id="Path_2260" data-name="Path 2260" class="cls-4" d="M196.74,291a6.59,6.59,0,0,0-3-.49,14,14,0,0,0-3.34.41,7.85,7.85,0,0,0-1.93.71,2,2,0,0,0-1.11,2.15,2.4,2.4,0,0,0,1.7,1.7,4.47,4.47,0,0,0,2.12,0,8.57,8.57,0,0,0,3.06-1.5,8.33,8.33,0,0,0,2.23-2.16,20.12,20.12,0,0,0-2.51,1.7,8.3,8.3,0,0,1-2.9,1.24,3.7,3.7,0,0,1-1.75,0,1.59,1.59,0,0,1-1.11-1.11,1.22,1.22,0,0,1,.7-1.31,7.15,7.15,0,0,1,1.71-.67,16.3,16.3,0,0,1,3.18-.56C195.58,290.91,196.72,291.1,196.74,291Z"/><path id="Path_2261" data-name="Path 2261" class="cls-4" d="M212.75,301.51c.22,0,0-2.05.92-4.26s2.46-3.51,2.31-3.7-2,.94-3,3.4S212.55,301.59,212.75,301.51Z"/><path id="Path_2262" data-name="Path 2262" class="cls-4" d="M179.84,303.73a9.19,9.19,0,0,0,1.82.86,39.83,39.83,0,0,0,5.25,1.62,75.29,75.29,0,0,0,18,1.68c7.07-.08,13.44-.4,18.06-.59l5.46-.29a10.38,10.38,0,0,0,2-.22,10.49,10.49,0,0,0-2-.1H222.9l-18,.38a83.84,83.84,0,0,1-17.82-1.47C182.52,304.7,179.89,303.54,179.84,303.73Z"/><path id="Path_2263" data-name="Path 2263" class="cls-4" d="M178.44,304.77c.07.1,1.36-.65,3.53-1.6a16.43,16.43,0,0,1,8.92-1.48c3.55.54,6.08,2.93,7.71,4.59a27.36,27.36,0,0,0,2.72,2.77,14.55,14.55,0,0,0-2.3-3.15,18.88,18.88,0,0,0-3.13-2.93,11.2,11.2,0,0,0-4.88-2.06,15.59,15.59,0,0,0-9.28,1.76A12.36,12.36,0,0,0,178.44,304.77Z"/><g id="Group_11" data-name="Group 11" class="cls-6"><path id="Path_2264" data-name="Path 2264" class="cls-7" d="M185.85,283s47.16,13.05,49,13.72c2.84,1,2.36,11.4-2.06,11.24-2.09-.08-36.22,1.27-40.53,1S175,303.59,175,303.59Z"/></g><path id="Path_2265" data-name="Path 2265" class="cls-4" d="M133.46,228.85l-10.18,20.92S68.84,233.22,55.13,234s-25,6.27-27.62,17.41-3,26.51,13,37.18S136,305.12,136,305.12h31.47L218.9,237.3l-8.28-6.68Z"/><path id="Path_2266" data-name="Path 2266" class="cls-8" d="M150.57,274.77a4.44,4.44,0,0,1-1,0,15.32,15.32,0,0,1-2.95-.23,61.5,61.5,0,0,1-10.67-2.23,103.77,103.77,0,0,1-15-5.89c-5.5-2.6-11.37-5.79-17.54-9.1a177.6,177.6,0,0,0-17.83-8.52,79.06,79.06,0,0,0-15.37-4.6,53.26,53.26,0,0,0-10.77-.94c-1.28,0-2.23.1-2.95.11a6,6,0,0,1-1,0,5.11,5.11,0,0,1,1-.14,28.18,28.18,0,0,1,3-.25,50.72,50.72,0,0,1,10.87.73,76.7,76.7,0,0,1,15.52,4.45,174.2,174.2,0,0,1,17.82,8.51c6.17,3.34,12,6.52,17.49,9.13a106.74,106.74,0,0,0,14.91,6,67,67,0,0,0,10.56,2.39c1.27.22,2.23.27,2.93.37A6.8,6.8,0,0,1,150.57,274.77Z"/><path id="Path_2267" data-name="Path 2267" class="cls-4" d="M187.77,299.58c10.11-4,65.71-21.67,85.4-44.41a21.76,21.76,0,0,0,5.38-18.88c-2.74-15.17-16.71-25.29-31.19-19.56-2.06.82-6.78,2.66-8.77,3.72-5.39,2.9-92.86,58.37-92.86,58.37s15.24,29.72,14.86,30.86Z"/><path id="Path_2268" data-name="Path 2268" class="cls-8" d="M215.15,233.63a1.11,1.11,0,0,1-.23.19l-.73.5-2.86,1.86-10.57,6.68-35,22-19,11.84.12-.39c4.05,9.73,7.5,18,10,24,1.18,2.91,2.13,5.22,2.8,6.88l.73,1.84a3.53,3.53,0,0,1,.21.65,3.8,3.8,0,0,1-.31-.6c-.2-.46-.47-1.06-.82-1.8l-3-6.81-10.19-23.88-.1-.25.22-.14,18.93-11.89,35.07-21.8,10.68-6.54,2.92-1.76.77-.43A.9.9,0,0,1,215.15,233.63Z"/><path id="Path_2269" data-name="Path 2269" class="cls-8" d="M138.33,259.86a9.26,9.26,0,0,1-2.58-1,35.31,35.31,0,0,1-10.7-7.88,9,9,0,0,1-1.7-2.17c.16-.14,2.94,3,7.1,6S138.42,259.67,138.33,259.86Z"/><path id="Path_2270" data-name="Path 2270" class="cls-8" d="M168.61,235.21a20.11,20.11,0,0,1,.13,3.47c0,2.15.12,5.1.41,8.36s.75,6.18,1.12,8.3a21.08,21.08,0,0,1,.49,3.45,14.88,14.88,0,0,1-1-3.34,64.74,64.74,0,0,1-1.52-16.71A15.54,15.54,0,0,1,168.61,235.21Z"/><path id="Path_2271" data-name="Path 2271" class="cls-8" d="M175.11,234.49a1.24,1.24,0,0,1,.69.08,3.12,3.12,0,0,1,1.44,1.22,3.32,3.32,0,0,1,.42,2.81,3,3,0,0,1-2.86,2,2.93,2.93,0,0,1-3-1.74,3.1,3.1,0,0,1,.38-2.81,2.79,2.79,0,0,1,1.52-1.11,1,1,0,0,1,.69,0,3.36,3.36,0,0,0-1.8,1.39,2.71,2.71,0,0,0-.21,2.32,2.36,2.36,0,0,0,2.36,1.29,2.44,2.44,0,0,0,2.23-1.51,2.9,2.9,0,0,0-.23-2.34A4,4,0,0,0,175.11,234.49Z"/><path id="Path_2272" data-name="Path 2272" class="cls-8" d="M148.21,232.28a2.82,2.82,0,0,1,.48,1,9.15,9.15,0,0,1,.46,3.07,11.09,11.09,0,0,1-1,4.46,10.12,10.12,0,0,1-9,6.08,10.93,10.93,0,0,1-4.56-.76,9.66,9.66,0,0,1-2.68-1.58,3.13,3.13,0,0,1-.78-.84,17.08,17.08,0,0,0,3.62,2.06,11,11,0,0,0,4.37.59,9.77,9.77,0,0,0,8.5-5.72,11.07,11.07,0,0,0,1.11-4.26A16.09,16.09,0,0,0,148.21,232.28Z"/><path id="Path_2273" data-name="Path 2273" class="cls-8" d="M200.1,242.64a3.56,3.56,0,0,1-2.06-.29,7.8,7.8,0,0,1-5.23-8,3.63,3.63,0,0,1,.57-2c.11,0-.1.79-.08,2a8.23,8.23,0,0,0,4.91,7.53C199.31,242.47,200.11,242.53,200.1,242.64Z"/><path id="Path_2274" data-name="Path 2274" class="cls-8" d="M227.3,284.23a2.11,2.11,0,0,1,.33-.18l1-.49,3.86-1.86c3.34-1.62,8.18-4,14-7.12a107.55,107.55,0,0,0,19.36-12.88,57.07,57.07,0,0,0,9.25-10.08,22.3,22.3,0,0,0,3.34-14,22,22,0,0,0-1.83-7.16,19.18,19.18,0,0,0-1.8-3.14,25.21,25.21,0,0,0-2.29-2.76,59.17,59.17,0,0,0-5.2-4.69,15.37,15.37,0,0,0-5.67-3.34,20.86,20.86,0,0,0-6.29-.7,32.38,32.38,0,0,0-6,.65,36.7,36.7,0,0,0-10.08,3.81l-13.76,7.63L221.8,230l-1,.53-.34.16a3.28,3.28,0,0,1,.31-.2l1-.56,3.71-2.14c3.23-1.84,7.89-4.53,13.7-7.8a36.6,36.6,0,0,1,10.15-3.9,32.32,32.32,0,0,1,6.05-.69,21.32,21.32,0,0,1,6.41.7,15.82,15.82,0,0,1,5.84,3.45,61.66,61.66,0,0,1,5.24,4.72,28.44,28.44,0,0,1,2.34,2.8,20.23,20.23,0,0,1,1.84,3.23,23,23,0,0,1-1.56,21.57A57.33,57.33,0,0,1,266.12,262a105.55,105.55,0,0,1-19.48,12.85c-5.87,3.12-10.73,5.43-14.1,7l-3.88,1.78-1,.45Z"/><path id="Path_2275" data-name="Path 2275" class="cls-5" d="M149.43,283.31s-47.32,12.47-49.22,13.11c-2.85,1-2.51,11.38,1.91,11.27,2.1,0,36.21,1.72,40.52,1.5s16-4.66,16-4.66Z"/><path id="Path_2276" data-name="Path 2276" class="cls-4" d="M129.56,301.06c-.24,0-.53-2.47-2-5.09s-3.43-4.2-3.27-4.38,2.4,1.12,4,4S129.76,301.08,129.56,301.06Z"/><path id="Path_2277" data-name="Path 2277" class="cls-4" d="M134.5,298.89c-.23,0-.68-2.23-1.9-4.68s-2.68-4.22-2.51-4.38,2,1.42,3.23,4S134.7,298.88,134.5,298.89Z"/><path id="Path_2278" data-name="Path 2278" class="cls-4" d="M139.16,297.71c-.24,0,0-2.36-1-5s-2.68-4.28-2.52-4.46,2.23,1.3,3.26,4.17S139.32,297.79,139.16,297.71Z"/><path id="Path_2279" data-name="Path 2279" class="cls-4" d="M138.37,291.61a8.39,8.39,0,0,1-.46-3.52,16.26,16.26,0,0,1,1.25-6,2.54,2.54,0,0,1,.77-1.11,1.25,1.25,0,0,1,1.62.1,2,2,0,0,1,.6,1.33,8.72,8.72,0,0,1,.06,1.25,11.27,11.27,0,0,1-.32,2.31,14.61,14.61,0,0,1-1.5,3.58,9.6,9.6,0,0,1-2.16,2.82c-.1-.08.7-1.17,1.66-3.09a14.83,14.83,0,0,0,1.28-3.48,10.44,10.44,0,0,0,.26-2.15c0-.73,0-1.64-.41-2a.46.46,0,0,0-.63-.07,2.21,2.21,0,0,0-.52.82,15.93,15.93,0,0,0-.73,2.07,17.78,17.78,0,0,0-.67,3.68C138.3,290.26,138.5,291.59,138.37,291.61Z"/><path id="Path_2280" data-name="Path 2280" class="cls-4" d="M138.43,291.13a6.54,6.54,0,0,1,3.06-.45,13.44,13.44,0,0,1,3.34.45,7.32,7.32,0,0,1,1.92.73,2,2,0,0,1,1,2.23,2.34,2.34,0,0,1-1.71,1.66,4.23,4.23,0,0,1-2.12,0,9.82,9.82,0,0,1-5.21-3.77,19.31,19.31,0,0,1,2.48,1.73,8.66,8.66,0,0,0,2.89,1.29,3.66,3.66,0,0,0,1.74,0,1.57,1.57,0,0,0,1.12-1.11,1.23,1.23,0,0,0-.68-1.33,8.08,8.08,0,0,0-1.7-.69,16.39,16.39,0,0,0-3.17-.59C139.62,291.08,138.46,291.26,138.43,291.13Z"/><path id="Path_2281" data-name="Path 2281" class="cls-4" d="M122.31,301.5c-.24,0,0-2-.88-4.26s-2.41-3.53-2.23-3.72,2,1,3,3.43S122.45,301.56,122.31,301.5Z"/><path id="Path_2282" data-name="Path 2282" class="cls-4" d="M155.19,304.06a9.51,9.51,0,0,1-1.84.83,37.46,37.46,0,0,1-5.27,1.56,75.18,75.18,0,0,1-18,1.49c-7.07-.16-13.43-.57-18-.81l-5.46-.36a10.3,10.3,0,0,1-2-.23,9.76,9.76,0,0,1,2-.07l5.47.1,18,.58A84.54,84.54,0,0,0,148,306C152.52,305,155.13,303.91,155.19,304.06Z"/><path id="Path_2283" data-name="Path 2283" class="cls-4" d="M156.57,305.15c-.07.11-1.35-.66-3.52-1.64a16.23,16.23,0,0,0-8.91-1.59c-3.57.49-6.12,2.85-7.8,4.45a26.35,26.35,0,0,1-2.75,2.74,14.91,14.91,0,0,1,2.35-3.13,19.21,19.21,0,0,1,3.16-2.88,11.23,11.23,0,0,1,4.9-2,15.52,15.52,0,0,1,9.25,1.87A12.63,12.63,0,0,1,156.57,305.15Z"/><path id="Path_2284" data-name="Path 2284" class="cls-4" d="M109.23,306.61c-.08-.06.33-.68.71-1.77a8.62,8.62,0,0,0-1.46-8.48c-.72-.9-1.31-1.35-1.26-1.43s.75.26,1.6,1.12a8,8,0,0,1,1.54,8.91C109.84,306.12,109.29,306.65,109.23,306.61Z"/><path id="Path_2285" data-name="Path 2285" class="cls-5" d="M147.24,99.53l-24.32,6.82L130.83,182s-4.55,27-4.55,34.11a14.1,14.1,0,0,0,7.18,12.7l77.72,2.34,4-3.43a11.18,11.18,0,0,0,2.6-8.68L203.26,103.6,176.2,97.73Z"/><path id="Path_2286" data-name="Path 2286" class="cls-4" d="M130.92,182a3.8,3.8,0,0,1-.15-.58l-.32-1.66c-.28-1.49-.66-3.56-1.11-6.1-.92-5.21-2.15-12.32-3.53-20.17s-2.52-15-3.4-20.2c-.4-2.55-.74-4.64-1-6.14-.1-.69-.18-1.25-.25-1.67a2.91,2.91,0,0,1,0-.59,5.47,5.47,0,0,1,.15.58c.07.42.19,1,.32,1.65.27,1.49.66,3.57,1.11,6.11.92,5.2,2.16,12.32,3.53,20.18l3.41,20.2c.4,2.55.74,4.63,1,6.14.1.69.19,1.23.25,1.67A2.25,2.25,0,0,1,130.92,182Z"/><path id="Path_2287" data-name="Path 2287" class="cls-4" d="M179.66,99.11a8.75,8.75,0,0,1-1.12.89c-.38.27-.87.55-1.41.89a12.4,12.4,0,0,1-2,1,26.36,26.36,0,0,1-5.56,1.73,41.52,41.52,0,0,1-7,.75,66.52,66.52,0,0,1-7.06-.22,40.84,40.84,0,0,1-5.73-.75,16.08,16.08,0,0,1-3.7-1.23q-.62-.31-.93-.51l-.3-.21c.44.16.87.35,1.3.55a19.75,19.75,0,0,0,3.7,1.12,41.81,41.81,0,0,0,5.69.64c2.15.15,4.53.25,7,.19a43,43,0,0,0,7-.69,27.73,27.73,0,0,0,5.48-1.6A31,31,0,0,0,179.66,99.11Z"/><path id="Path_2288" data-name="Path 2288" class="cls-4" d="M204.79,215.83a1.93,1.93,0,0,1-.53.11l-1.52.22c-.67.09-1.49.2-2.43.28s-2,.21-3.23.27c-2.4.18-5.26.24-8.43.2a101,101,0,0,1-10.3-.7c-3.62-.42-7.09-1.11-10.18-1.75a67.38,67.38,0,0,1-8.16-2.23c-1.11-.33-2.23-.71-3.07-1s-1.67-.59-2.23-.85l-1.44-.57a2,2,0,0,1-.49-.23,3.18,3.18,0,0,1,.53.14l1.46.5c.63.23,1.4.49,2.31.77s1.93.64,3.09,1c2.28.69,5,1.4,8.14,2.08s6.52,1.26,10.15,1.7,7.1.64,10.25.74,6,0,8.4-.1c1.2,0,2.23-.14,3.23-.21s1.76-.13,2.43-.2l1.54-.13Z"/><path id="Path_2289" data-name="Path 2289" class="cls-4" d="M213.78,151a4.93,4.93,0,0,1-.37-1.06c-.2-.68-.49-1.68-.83-2.92-.68-2.46-1.54-5.9-2.39-9.71s-1.52-7.3-2-9.81c-.22-1.27-.38-2.29-.48-3a4.68,4.68,0,0,1-.11-1.12,6.14,6.14,0,0,1,.29,1.12c.15.79.36,1.78.62,3,.51,2.51,1.24,6,2.08,9.78s1.66,7.25,2.23,9.73c.27,1.18.5,2.18.69,3A5.51,5.51,0,0,1,213.78,151Z"/><g id="Group_12" data-name="Group 12" class="cls-6"><path id="Path_2290" data-name="Path 2290" class="cls-7" d="M155.73,103c1,3.35.07,8.32.55,11.34A161.52,161.52,0,0,1,158.23,151a4.82,4.82,0,0,0,.12,2,6.36,6.36,0,0,0,1,1.53c2.46,3.25,3.1,7.6,2.6,11.65a47,47,0,0,1-3.52,11.71c-.08-3.26.09-8.15.35-11.41,0-.65.39-.23.4-.89.11-3.92-.55-7.55-3.35-10.35a8.63,8.63,0,0,1-1.56-1.74,5.85,5.85,0,0,1-.52-2.1q-2.53-20.52-3.46-41.21a3.29,3.29,0,0,1,.44-2.23,6.15,6.15,0,0,1,1.52-1c1.11-.69,1.71-1.91,2.85-2.46"/></g><path id="Path_2291" data-name="Path 2291" class="cls-5" d="M122.92,106.35s-22.21,5.24-16.83,38.52a205.37,205.37,0,0,0,13.25,47.27c3.65,8.56,11.89,14.48,21.17,13.25,4-.52,8,.11,10.72-1.51,4.1-2.48,5.88-10.8,6.69-19.78.52-6.13.31-12.5,1.11-17.73,1.32-8.53-2.58-12.55-7.6-13.55l-19.7-3.91-1.11,10.38Z"/><path id="Path_2292" data-name="Path 2292" class="cls-4" d="M138.56,172.6c.05,0,.38.4,1.11,1a7.8,7.8,0,0,0,3.66,1.46,12.29,12.29,0,0,0,5.82-.82,18.88,18.88,0,0,0,6.28-3.62,11.06,11.06,0,0,0,3.25-6.29,10.73,10.73,0,0,0-.69-5.79,15.15,15.15,0,0,0-3.13-4.51,3.91,3.91,0,0,1,1.23.9,10.58,10.58,0,0,1,2.4,3.34,11,11,0,0,1,.9,6.13,11.51,11.51,0,0,1-3.43,6.74,18.59,18.59,0,0,1-6.57,3.73,12.24,12.24,0,0,1-6.14.69,7.49,7.49,0,0,1-3.77-1.77A2.9,2.9,0,0,1,138.56,172.6Z"/><path id="Path_2293" data-name="Path 2293" class="cls-4" d="M118.15,189.22c.08,0,.42,1.05,1.34,2.85a25.13,25.13,0,0,0,5.06,6.79,24,24,0,0,0,10.87,6,24.41,24.41,0,0,0,15-1.06c2.52-1,3.43-3.81,4.39-6.15a38.69,38.69,0,0,0,1.87-7.2A126.67,126.67,0,0,0,158,177.86c.26-3.53.47-6.42.63-8.56.08-.94.15-1.7.21-2.33a3.6,3.6,0,0,1,.12-.8,2.75,2.75,0,0,1,0,.81v2.34c-.1,2.14-.22,5-.39,8.58a112.71,112.71,0,0,1-1.11,12.72,40.4,40.4,0,0,1-1.86,7.35,27.74,27.74,0,0,1-1.66,3.69,6.62,6.62,0,0,1-3.12,2.91,24.75,24.75,0,0,1-15.6,1,24.45,24.45,0,0,1-16-13.36,18.25,18.25,0,0,1-.85-2.23A3.08,3.08,0,0,1,118.15,189.22Z"/><path id="Path_2294" data-name="Path 2294" class="cls-4" d="M125.56,174.78a19.1,19.1,0,0,1,0-4c.13-2.46.37-5.85.67-9.61.16-1.88.29-3.65.49-5.29a8.22,8.22,0,0,1,1.51-4.18,4.44,4.44,0,0,1,2.52-1.64,1.52,1.52,0,0,1,1.11,0,9.39,9.39,0,0,0-1,.26,4.44,4.44,0,0,0-2.16,1.68c-1.45,1.92-1.29,5.48-1.66,9.2s-.63,7.14-.9,9.59A21.31,21.31,0,0,1,125.56,174.78Z"/><path id="Path_2295" data-name="Path 2295" class="cls-4" d="M132.47,139.42c-.2-1-.51-2.57-.91-4.45-.8-3.76-2-8.92-3.28-14.64a82.1,82.1,0,0,0-2.12-8,18.41,18.41,0,0,0-3.25-6l-.44.35a18.78,18.78,0,0,1,3,5.87c.79,2.37,1.35,5.1,2,8,1.32,5.7,2.57,10.86,3.52,14.58.47,1.86.86,3.34,1.11,4.4a6.28,6.28,0,0,0,.54,1.58A7.61,7.61,0,0,0,132.47,139.42Z"/><g id="Group_13" data-name="Group 13" class="cls-6"><path id="Path_2296" data-name="Path 2296" class="cls-7" d="M132.69,146.58a8.61,8.61,0,0,0-5,1.69,16.66,16.66,0,0,0-6.62,9.36,19.52,19.52,0,0,0,.51,11.52c.42,1.11,1.2,2.45,2.41,2.39,1.44,0,2-1.84,2.23-3.25l1.65-11.77a10.9,10.9,0,0,1,1-3.88,3.73,3.73,0,0,1,3.24-2l.37-4.2"/></g><path id="Path_2297" data-name="Path 2297" class="cls-5" d="M264.89,164.5a32.89,32.89,0,0,0,4.59-15.41,51.67,51.67,0,0,0-2.23-16.89l-23.59-7.32-.15,7.89Z"/><path id="Path_2298" data-name="Path 2298" class="cls-5" d="M243.56,132.72,203.3,103.6v2l4.35,45.32s33.28,14.9,42.09,17.1a17.58,17.58,0,0,0,15.15-3.54Z"/><path id="Path_2299" data-name="Path 2299" class="cls-4" d="M255.49,154.72a3.26,3.26,0,0,1-.92-.49,15.32,15.32,0,0,1-2.22-1.72A24.66,24.66,0,0,1,247,145a48.9,48.9,0,0,1-3.08-8.7c-.3-1.11-.51-2.07-.65-2.72a3.87,3.87,0,0,1-.16-1,24,24,0,0,1,1.21,3.62,63.34,63.34,0,0,0,3.2,8.56,27.41,27.41,0,0,0,5.14,7.47C254.29,153.87,255.54,154.64,255.49,154.72Z"/><path id="Path_2300" data-name="Path 2300" class="cls-4" d="M267.18,137.85a3.62,3.62,0,0,1-1,0,26.42,26.42,0,0,1-2.82-.3,34.6,34.6,0,0,1-16.82-7.8,22.48,22.48,0,0,1-2.06-2,3.49,3.49,0,0,1-.66-.8s1.11,1,3,2.45a39.58,39.58,0,0,0,16.63,7.72C265.71,137.63,267.18,137.77,267.18,137.85Z"/><path id="Path_2301" data-name="Path 2301" class="cls-4" d="M245.33,150.94a8.17,8.17,0,0,1-1.26-2.5,24.44,24.44,0,0,1-1.34-6.6,49.79,49.79,0,0,1,.06-6.69,11.64,11.64,0,0,1,.35-2.75,14.34,14.34,0,0,1,.06,2.78c0,1.71-.06,4.07.11,6.68a29.29,29.29,0,0,0,1.12,6.51A21.14,21.14,0,0,1,245.33,150.94Z"/><path id="Path_2302" data-name="Path 2302" class="cls-4" d="M202.7,121.06a6.13,6.13,0,0,1,.41,1.23c.24.8.55,2,.93,3.42.73,2.9,1.68,6.92,2.62,11.37s1.68,8.53,2.16,11.48c.24,1.47.42,2.67.52,3.5a5.16,5.16,0,0,1,.11,1.3,5.57,5.57,0,0,1-.33-1.26l-.7-3.47c-.63-3-1.44-7-2.33-11.42s-1.79-8.36-2.45-11.4c-.29-1.37-.55-2.53-.75-3.46A5.58,5.58,0,0,1,202.7,121.06Z"/><path id="Path_2303" data-name="Path 2303" class="cls-2" d="M131.48,153l4.93-54.58,16.35,6.45,2.1,55.51s-5.23,7.91-14.07,4.67A14.35,14.35,0,0,1,131.48,153Z"/><path id="Path_2304" data-name="Path 2304" class="cls-4" d="M134.66,50.65l30.56,26.87L159.69,97.6l-2.22.65L130.75,70.91l1.69-19.6Z"/><path id="Path_2305" data-name="Path 2305" class="cls-8" d="M132.44,51.3,163,78.18l-5.54,20.07L128.53,71.57Z"/><path id="Path_2306" data-name="Path 2306" class="cls-2" d="M153.45,106.64a11.81,11.81,0,0,0,3.06-7.51c-.07-4.11-1.2-14-1.2-14s5.31-11.14,5.18-12.66-.38-1.46-2.23-.86-7.8,10.78-7.8,10.78l-1.94-7.55s4.93-7.93,5.32-9,1-2-.19-2.12-10.48,8.85-10.48,8.85l.74,8.28s-.19.66-1.51-.5-1-11-1-11,3.15-5.85,3.07-6.68.57-1.76,0-3.21-2.44.22-2.44.22l-6.22,8-2.23-7.95s.09-1.7-2.12-1.72l.86,25.81,5.57,19.86Z"/><path id="Path_2307" data-name="Path 2307" class="cls-3" d="M154.86,160.4a7.79,7.79,0,0,0-.09-1c-.09-.64-.09-1.64-.15-2.86-.11-2.52-.27-6.18-.48-10.82-.37-9.41-.9-22.82-1.55-39v-.13l.13-.12a10.52,10.52,0,0,0,3-4.18,12.23,12.23,0,0,0,.61-5.37c-.19-3.77-.66-7.7-1.19-11.72V85c1-2.11,2-4.31,3-6.56.48-1.11,1-2.23,1.4-3.41.22-.57.44-1.17.6-1.74l.11-.44v-.35a2,2,0,0,0-.15-.78c.06-.18-.78,0-1.32.18a2,2,0,0,0-.72.37,6.55,6.55,0,0,0-.65.64,31.46,31.46,0,0,0-2.34,3c-1.47,2.14-2.85,4.39-4.2,6.68l-.49.83-.23-.93L148.16,75v-.16l.09-.14,2.5-4.09c.94-1.6,2-3.25,2.76-4.83.15-.45.38-.9.48-1.28.06-.2,0-.29,0-.27a.59.59,0,0,0-.37-.08l-.45.22c-.17.1-.36.26-.54.37l-1.12.84c-2.83,2.32-5.48,4.83-8.06,7.3l.11-.31q.39,4.19.75,8.28v.13a.71.71,0,0,1-.74.47,1.24,1.24,0,0,1-.53-.18,3.3,3.3,0,0,1-.76-.52,2.9,2.9,0,0,1-.79-1.68,22.17,22.17,0,0,1-.38-3.35,62.49,62.49,0,0,1,0-6.42v-.17a55.19,55.19,0,0,0,3-6.15,1.55,1.55,0,0,0,.07-.31v-.45a5,5,0,0,1,.16-.86,2.86,2.86,0,0,0-.06-1.48c-.17-.55-.33-.77-.75-.69a2.8,2.8,0,0,0-1.24.7h0l-6.16,8-.39.52-.18-.64c-.74-2.75-1.46-5.41-2.16-8v-.09a1.32,1.32,0,0,0-.56-1.11,2.33,2.33,0,0,0-1.26-.33l.3-.3c.3,10.5.56,19.2.75,25.81h0c1.22,4.74,2.17,8.41,2.83,10.94l.7,2.83c.15.63.2,1,.2,1s-.11-.31-.3-1-.46-1.59-.79-2.81c-.7-2.5-1.7-6.17-3-10.89h0L131.35,58v-.31h.3a2.85,2.85,0,0,1,1.59.42,1.89,1.89,0,0,1,.83,1.6v-.1q1.11,3.84,2.22,8l-.56-.11,6.12-8.05h0a3.66,3.66,0,0,1,1.6-.88,1.25,1.25,0,0,1,1.11.29,2,2,0,0,1,.47.88,3.62,3.62,0,0,1,.08,1.82,7.45,7.45,0,0,1-.14.8,2.54,2.54,0,0,0,0,.39,2.3,2.3,0,0,1-.1.51,52.56,52.56,0,0,1-3,6.29V69.3c-.05,2.09,0,4.22.07,6.37a22.61,22.61,0,0,0,.37,3.18,2.25,2.25,0,0,0,.55,1.26,3.31,3.31,0,0,0,.6.44.73.73,0,0,0,.25.08h0v.08h0c.18.08-.23-.09-.19-.06v.15c-.24-2.72-.5-5.47-.75-8.27v-.18l.13-.14c2.6-2.48,5.23-5,8.11-7.36.37-.29.73-.58,1.11-.86.2-.13.38-.27.6-.4a2.23,2.23,0,0,1,.83-.33,1.21,1.21,0,0,1,.93.29,1,1,0,0,1,.19,1,13.57,13.57,0,0,1-.5,1.34c-.87,1.8-1.86,3.34-2.83,5L148.84,75v-.3l1.92,7.55-.71-.1c1.36-2.3,2.75-4.55,4.25-6.68a31.52,31.52,0,0,1,2.4-3.12,5.51,5.51,0,0,1,.74-.71,2.47,2.47,0,0,1,1-.49,8,8,0,0,1,1-.26,2.15,2.15,0,0,1,.62,0,.92.92,0,0,1,.64.46,3.25,3.25,0,0,1,.24,1.11,5.61,5.61,0,0,1,0,.58l-.12.48c-.19.64-.4,1.23-.63,1.82l-1.42,3.44c-1,2.23-2,4.45-3,6.58v-.21c.52,4,1,8,1.17,11.8a12.93,12.93,0,0,1-.7,5.65,11.29,11.29,0,0,1-3.18,4.45l.13-.28c.53,16.24,1,29.66,1.27,39.07.14,4.65.24,8.3.3,10.84,0,1.22,0,2.17.06,2.84A8.46,8.46,0,0,0,154.86,160.4Z"/><path id="Path_2308" data-name="Path 2308" class="cls-3" d="M137.06,81.62c-.21,0-.63-3.13-.94-7.05s-.38-7.11-.17-7.11.65,3.14,1,7.05S137.29,81.6,137.06,81.62Z"/></g><g id="freepik--Plant--inject-470"><path id="Path_2309" data-name="Path 2309" class="cls-5" d="M329.67,214.56c5.17-2.67,11.25-3,17-2.07,3.08.51,6.3,1.43,8.4,3.75s2.5,6.4.09,8.39a8.16,8.16,0,0,1-5.3,1.35c-4.5,0-9.48-.85-13.08,1.86-2,1.54-3.41,4.1-5.86,4.86a5.79,5.79,0,0,1-6.37-2.83,9.85,9.85,0,0,1-.72-7.3A11.15,11.15,0,0,1,329.67,214.56Z"/><path id="Path_2310" data-name="Path 2310" class="cls-5" d="M317.81,191.68c3.17,4.52,9.31,3,12.17.27s4-6.76,5.15-10.57c2.5-8.7,5-17.84,3.17-26.7a14.88,14.88,0,0,0-3.41-7.27,7.76,7.76,0,0,0-7.35-2.44c-3.1.81-5,3.85-6.42,6.74A63.52,63.52,0,0,0,314.84,179c0,4.4.49,9,3,12.65"/><path id="Path_2311" data-name="Path 2311" class="cls-5" d="M309.13,198.16c3.43-4.07,4.09-10,2.55-15.12s-5-9.45-8.95-13a48.71,48.71,0,0,0-16-9.47,17.35,17.35,0,0,0-7.23-1.2,7.61,7.61,0,0,0-6.06,3.66c-1.68,3.23-.07,7.13,1.68,10.31a121,121,0,0,0,10.54,16.06c3.16,4.06,6.78,8.08,11.59,9.88s9.82,1.63,12.36-1.71"/><path id="Path_2312" data-name="Path 2312" class="cls-4" d="M317.6,259.82a10.12,10.12,0,0,0,.28-2.05c.15-1.49.33-3.37.55-5.6a82.22,82.22,0,0,1,1.21-8.24,65.07,65.07,0,0,1,3-9.7,36.19,36.19,0,0,1,4.95-8.78,18.44,18.44,0,0,1,6.26-5.21,17.52,17.52,0,0,1,5.28-1.64,8.91,8.91,0,0,0,2.05-.3,10.43,10.43,0,0,0-2.09,0,16.11,16.11,0,0,0-5.49,1.44A18.31,18.31,0,0,0,327,225a34.9,34.9,0,0,0-5.13,8.95,58.51,58.51,0,0,0-3,9.88,66.56,66.56,0,0,0-1.1,8.31c-.18,2.39-.25,4.3-.28,5.65A9.27,9.27,0,0,0,317.6,259.82Z"/><path id="Path_2313" data-name="Path 2313" class="cls-4" d="M318,255.52a3.86,3.86,0,0,0,0-1v-2.72c0-2.36,0-5.79.14-10,.2-8.45.93-17.57,2.33-30.36,1.33-12.08,3.12-26.08,5-35.2.41-2.08.82-3.94,1.2-5.58s.69-3,1-4.2.47-2,.64-2.65a3.63,3.63,0,0,0,.16-.93,4.52,4.52,0,0,0-.33.89c-.2.68-.47,1.55-.79,2.61s-.71,2.53-1.1,4.16-.88,3.5-1.31,5.56a305.22,305.22,0,0,0-5.25,32.65c-1.41,12.84-2,24.53-2.1,33,0,4.23,0,7.69.14,10,.08,1.1.13,2,.18,2.72A3.53,3.53,0,0,0,318,255.52Z"/><path id="Path_2314" data-name="Path 2314" class="cls-4" d="M318,233a16.83,16.83,0,0,0,0-2.84,76.33,76.33,0,0,0-.87-7.69,100,100,0,0,0-2.5-11.23A90.4,90.4,0,0,0,310,197.9a70.86,70.86,0,0,0-13.79-21.48,37.74,37.74,0,0,0-3.3-3c-.5-.42-.94-.84-1.39-1.16l-1.25-.87a16.86,16.86,0,0,0-2.4-1.54c-.14.19,3.4,2.26,7.86,7a74.84,74.84,0,0,1,13.44,21.39,105.45,105.45,0,0,1,4.72,13.18,111.71,111.71,0,0,1,2.67,11.12c.59,3.21.93,5.82,1.1,7.63A18.77,18.77,0,0,0,318,233Z"/><path id="Path_2315" data-name="Path 2315" class="cls-4" d="M296.24,272.75l2.26,31h39.78l2.26-31Z"/><rect id="Rectangle_14" data-name="Rectangle 14" class="cls-4" x="292.4" y="260.55" width="52.9" height="12.2"/><path id="Path_2316" data-name="Path 2316" class="cls-8" d="M292.4,302.53v3.38h52v-3.38Z"/><path id="Path_2317" data-name="Path 2317" class="cls-8" d="M297.32,311.87l-2.44-6h47.64l-2.84,6Z"/><path id="Path_2318" data-name="Path 2318" class="cls-9" d="M339.81,282.87a1.45,1.45,0,0,1-.19.29l-.59.78-2.32,3-.11.13-.1-.15c-1.45-2-3.39-4.71-5.69-7.87h.33c-1.7,2.39-3.58,5.07-5.61,7.94l-.18.24-.2-.23-6.61-7.91h.39l-.37.47L312.61,287l-.2.24-.17-.25-5.65-7.91h.33L300,286.94l-.13.14-.09-.15-2.2-3.64c-.23-.4-.4-.71-.56-1a1.46,1.46,0,0,1-.16-.36,2.26,2.26,0,0,1,.23.31l.61.94,2.28,3.56h-.22l6.8-8,.17-.2.16.21,5.65,7.91h-.38l5.93-7.47.37-.46.19-.23.2.23,6.59,7.92h-.37l5.66-7.9.17-.23.16.23,5.57,8h-.2l2.4-2.89.65-.75C339.72,283,339.79,282.86,339.81,282.87Z"/><path id="Path_2319" data-name="Path 2319" class="cls-8" d="M341.1,272.55c0,.13-10,.24-22.27.24s-22.26-.11-22.26-.24,10-.25,22.26-.25S341.1,272.41,341.1,272.55Z"/><path id="Path_2320" data-name="Path 2320" class="cls-4" d="M343.11,306.25c0,.14-10.84.25-24.16.25s-24.16-.11-24.16-.25S305.62,306,319,306,343.11,306.11,343.11,306.25Z"/></g><g id="Group_14" data-name="Group 14"><rect id="Rectangle_15" data-name="Rectangle 15" class="cls-10" x="5.28" y="69.12" width="69.23" height="69.23" rx="6.37" transform="translate(-20.8 10.63) rotate(-12.06)"/><path id="Path_2321" data-name="Path 2321" class="cls-11" d="M64.4,110.24a4.58,4.58,0,0,0-.41-1.5l-.19-.47a12.28,12.28,0,0,0-5.27-5,27,27,0,0,0-6.33-2.43l-.27-.07a.39.39,0,0,0-.45.19l-4.3,7.34L31.42,98.23l4.3-7.94a.44.44,0,0,0,0-.32.4.4,0,0,0-.22-.24L31.88,88a12.19,12.19,0,0,0-1.2-.52,2.47,2.47,0,0,0-.36-.19l-.2-.11a5.32,5.32,0,0,0-.82-.35,11.2,11.2,0,0,0-4.3-.66,11,11,0,0,0-6.43,2.45,10.24,10.24,0,0,0-3.87,8.18,7.23,7.23,0,0,0,2.33,5,14.57,14.57,0,0,0,2.3,1.68l24,15.37.89.56a24.52,24.52,0,0,0,2.2,1.31A13.81,13.81,0,0,0,50,122a13.41,13.41,0,0,0,2.6.26,12.3,12.3,0,0,0,5.07-1.1,11.58,11.58,0,0,0,5.61-5.31A9.68,9.68,0,0,0,64,114l.1-.32a5.45,5.45,0,0,0,.34-1.59l.06-1Zm-30-19.77-4.5,7.94A.41.41,0,0,0,30,99l17.35,11.38a.33.33,0,0,0,.32,0,.38.38,0,0,0,.26-.18l4.47-7.57a24.58,24.58,0,0,1,5.36,2.2,11,11,0,0,1,4.57,4.23c.06.15.11.31.18.46a2.82,2.82,0,0,1,.28,1l.12.72-.07.88a4,4,0,0,1-.26,1.18l-.11.34a7,7,0,0,1-.63,1.52A10.19,10.19,0,0,1,57,119.72a11.2,11.2,0,0,1-6.69.69,13.17,13.17,0,0,1-3.16-1.1c-.69-.35-1.38-.8-2-1.23l-.9-.57-24-15.25a14.83,14.83,0,0,1-2.1-1.5,5.75,5.75,0,0,1-1.92-4,9,9,0,0,1,3.29-7.14,10.14,10.14,0,0,1,5.68-2.3h.74a10.21,10.21,0,0,1,4.19.83l.36.14c.22.14.57.33,1.1.62Z"/><path id="Path_2322" data-name="Path 2322" class="cls-11" d="M41.76,92.84a30,30,0,0,0,4.82-.76c.92,4.63,1.26,5.12,1.6,5.12h.13c.39-.07.7-.14-.3-5.4,5.36-1.16,5.32-1.47,5.25-1.85h0a.5.5,0,0,0-.2-.29c-.3-.21-2.11,0-5.33.7-.62-3.13-1.1-4.83-1.4-5a.45.45,0,0,0-.61.11c-.21.31,0,2.08.58,5.23-4.93,1.1-5.13,1.43-5.21,1.56a.45.45,0,0,0,0,.36C41.14,92.71,41.18,92.84,41.76,92.84Z"/></g></g></g></g></svg>