<svg xmlns="http://www.w3.org/2000/svg" viewBox="0 0 51 40.45"><defs><style>.cls-1,.cls-2{fill:none;}.cls-1{stroke:#000;stroke-linecap:round;stroke-linejoin:round;}.cls-3{fill:#ecad3c;}</style></defs><g id="Layer_2" data-name="Layer 2"><g id="Layer_1-2" data-name="Layer 1"><path class="cls-1" d="M50.5,18H.5L7.12,5.14H43.88Z"/><polyline class="cls-1" points="47.23 21.5 47.23 39.95 3.77 39.95 3.77 21.58"/><line class="cls-1" x1="3.58" y1="17.99" x2="47.04" y2="17.99"/><rect class="cls-1" x="8.25" y="24.07" width="20.56" height="11.68"/><rect class="cls-1" x="33.95" y="24.07" width="8.41" height="15.89"/><rect class="cls-2" x="9.89" width="31.31" height="9.35"/><rect class="cls-3" x="12.18" width="26.64" height="9.35" rx="0.61"/><path d="M17.16,6.62l.58-.7a1.72,1.72,0,0,0,1.09.47c.42,0,.63-.16.63-.43s-.26-.37-.65-.53l-.58-.25A1.28,1.28,0,0,1,17.34,4a1.44,1.44,0,0,1,1.58-1.33,2.08,2.08,0,0,1,1.44.58l-.51.64a1.46,1.46,0,0,0-.93-.35c-.34,0-.57.15-.57.4s.3.37.68.53l.57.23a1.22,1.22,0,0,1,.89,1.21,1.49,1.49,0,0,1-1.68,1.38A2.46,2.46,0,0,1,17.16,6.62Z"/><path d="M21.25,2.72h1V4.44h1.54V2.72h1V7.18h-1V5.32H22.25V7.18h-1Z"/><path d="M25.64,4.93a2,2,0,1,1,4.05,0c0,1.46-.82,2.33-2,2.33A2.05,2.05,0,0,1,25.64,4.93Zm3,0c0-.89-.38-1.42-1-1.42s-1,.53-1,1.42.38,1.46,1,1.46S28.66,5.82,28.66,4.93Z"/><path d="M30.53,2.72h1.53c1,0,1.77.35,1.77,1.44S33,5.67,32.09,5.67h-.55V7.18h-1ZM32,4.87c.55,0,.82-.25.82-.71s-.3-.64-.85-.64h-.46V4.87Z"/><path class="cls-1" d="M3.58,18h-3c.15,2.08,2.3,3.74,4.94,3.74s4.79-1.66,4.95-3.74H3.58"/><path class="cls-1" d="M20.37,18c.15,2.08,2.3,3.74,4.94,3.74S30.1,20.07,30.25,18Z"/><path class="cls-1" d="M10.45,18c.16,2.08,2.31,3.74,5,3.74s4.79-1.66,4.94-3.74Z"/><path class="cls-1" d="M30.28,18c.15,2.08,2.3,3.74,4.94,3.74S40,20.07,40.16,18Z"/><path class="cls-1" d="M40.19,18c.15,2.08,2.3,3.74,4.94,3.74s4.79-1.66,4.94-3.74Z"/></g></g></svg>