<svg xmlns="http://www.w3.org/2000/svg" viewBox="0 0 51 33.09"><defs><style>.cls-1,.cls-3,.cls-4{fill:none;}.cls-1,.cls-2,.cls-3{stroke:#000;}.cls-1,.cls-2,.cls-4{stroke-linecap:round;}.cls-1,.cls-2{stroke-linejoin:round;}.cls-2{fill:#fff;}.cls-3,.cls-4{stroke-miterlimit:10;}.cls-4{stroke:#ecad3c;}.cls-5{fill:#ecad3c;}</style></defs><g id="Layer_2" data-name="Layer 2"><g id="Layer_1-2" data-name="Layer 1"><polyline class="cls-1" points="2.38 29.5 2.38 0.5 48.77 0.5 48.77 29.5"/><rect class="cls-1" x="4.06" y="2.18" width="42.87" height="27.32"/><rect class="cls-1" x="0.5" y="29.49" width="50" height="3.09" rx="1.52"/><path class="cls-2" d="M19.31,29.49H30.65l-1.5,1.29H20.82Z"/><path class="cls-3" d="M30.43,15V25.1h9.86V10.81H40A33.2,33.2,0,0,1,30.43,15Z"/><path class="cls-3" d="M10.7,18.5v6.6h9.86V17.32h-.09C17,17.88,13.69,18.25,10.7,18.5Z"/><path class="cls-3" d="M27.26,16c-2.22.54-4.47,1-6.7,1.36V25.1h9.87v-10C29.45,15.38,28.4,15.67,27.26,16Z"/><polyline class="cls-4" points="10.19 25.61 20.08 15.71 22.46 18.09 29.41 11.15 32.91 14.65 37.8 9.76"/><polygon class="cls-5" points="38.19 11.83 41.56 6 35.73 9.36 38.19 11.83"/></g></g></svg>